<?xml version="1.0" encoding="UTF-8" standalone="no"?>
<!DOCTYPE svg PUBLIC "-//W3C//DTD SVG 1.1//EN" "http://www.w3.org/Graphics/SVG/1.1/DTD/svg11.dtd">
<svg width="100%" height="100%" viewBox="0 0 512 158" version="1.1" xmlns="http://www.w3.org/2000/svg" xmlns:xlink="http://www.w3.org/1999/xlink" xml:space="preserve" xmlns:serif="http://www.serif.com/" style="fill-rule:evenodd;clip-rule:evenodd;stroke-linejoin:round;stroke-miterlimit:2;">
    <g transform="matrix(1,0,0,1,-24.0002,-121.066)">
        <clipPath id="_clip1">
            <rect x="24" y="121.066" width="512" height="157.868"/>
        </clipPath>
        <g clip-path="url(#_clip1)">
            <g>
                <path d="M340.371,194.654C338.64,195.215 336.274,195.691 333.335,196.058C331.934,196.241 330.377,196.333 328.553,196.333C325.49,196.333 322.172,196.089 318.959,195.838L318.848,195.834C315.871,195.609 313.055,195.398 310.353,195.398C308.423,195.398 306.654,195.512 304.957,195.729C299.909,196.356 295.928,197.941 295.928,197.941L295.971,197.531C296.949,187.407 305.456,178.764 315.749,177.397C316.698,177.286 317.676,177.223 318.654,177.223C328.352,177.223 337.757,184.575 340.552,194.341L340.622,194.594L340.371,194.654ZM352.22,198.952L352.217,198.814C352.173,198.163 352.049,197.11 351.912,195.978C351.647,193.924 351.198,191.902 350.578,189.952C345.897,175.186 333.366,165.657 318.654,165.657C317.186,165.657 315.669,165.75 314.173,165.954C295.306,168.382 282.492,185.481 284.987,204.881C287.256,222.444 301.387,234.476 318.584,234.476C320.035,234.476 321.546,234.375 323.072,234.192C332.237,233.028 340.29,229.189 346.323,221.724C346.663,221.299 346.831,220.756 346.768,220.269C346.713,219.837 346.46,219.426 346.004,219.096C344.992,218.368 341.379,216.615 339.413,215.679L338.111,215.037C337.515,214.73 337.088,214.592 336.699,214.592C336.222,214.592 335.77,214.836 335.328,215.372C331.439,219.893 326.517,222.268 321.488,222.928C320.491,223.05 319.524,223.115 318.584,223.115C309.419,223.115 300.169,216.978 297.484,208.555L297.417,208.334L297.614,208.239C298.09,208.003 302.379,206.006 308.735,206.006C309.523,206.006 310.326,206.038 311.11,206.108C312.933,206.252 314.764,206.489 316.695,206.733C320.259,207.204 323.955,207.692 328.269,207.692C330.928,207.692 333.542,207.5 336.207,207.129C346.698,205.107 350.86,202.165 350.893,202.138C352.374,201.18 352.319,200.386 352.22,198.952M516.563,169.523C516.563,168.642 515.84,167.933 514.968,167.933L506.285,167.933C505.421,167.933 504.705,168.642 504.705,169.523L504.705,231.259C504.705,232.131 505.421,232.852 506.285,232.852L514.968,232.852C515.84,232.852 516.563,232.131 516.563,231.259L516.563,169.523M510.634,145.914C506.318,145.914 502.796,149.438 502.796,153.761C502.796,158.074 506.318,161.59 510.634,161.59C514.961,161.59 518.471,158.074 518.471,153.761C518.471,149.438 514.961,145.914 510.634,145.914M395.696,177.382C408.001,177.382 417.643,187.509 417.643,200.445C417.643,213.458 408.494,223.262 396.358,223.262C390.23,223.262 384.55,221.064 380.394,217.083C376.106,212.99 373.755,207.21 373.755,200.832C373.755,187.901 383.596,177.382 395.696,177.382M395.311,234.497C395.859,234.52 396.428,234.542 396.981,234.542C405.902,234.542 414.192,231.098 420.352,224.891C426.599,218.563 430.029,209.886 430.029,200.445C430.029,180.939 415.012,165.657 395.836,165.657C380.232,165.657 367.06,175.932 363.032,191.217C362.347,193.812 361.638,200.43 361.638,207.03L361.638,255.47C361.638,256.353 362.347,257.072 363.23,257.072L371.842,257.072C372.732,257.072 373.453,256.344 373.453,255.457L373.446,224.943L373.898,225.382C378.128,229.492 385.973,234.059 395.311,234.497M240.962,177.382C253.256,177.382 262.902,187.509 262.902,200.445C262.902,213.458 253.756,223.262 241.61,223.262C235.467,223.262 229.813,221.064 225.66,217.083C221.365,212.99 219.002,207.21 219.002,200.832C219.002,187.901 228.853,177.382 240.962,177.382M240.58,234.497C241.129,234.52 241.694,234.542 242.237,234.542C251.168,234.542 259.461,231.098 265.611,224.891C271.859,218.563 275.3,209.886 275.3,200.445C275.3,180.939 260.27,165.657 241.091,165.657C225.493,165.657 212.307,175.932 208.289,191.217C207.591,193.812 206.893,200.43 206.893,207.03L206.893,255.47C206.893,256.353 207.609,257.072 208.47,257.072L217.108,257.072C217.994,257.072 218.715,256.344 218.715,255.457L218.701,224.943L219.137,225.382C223.369,229.492 231.214,234.059 240.58,234.497M438.326,223.683C445.824,230.545 454.015,234.465 464.65,234.465L464.987,234.465C483.343,234.346 491.544,224.313 491.544,214.428C491.544,200.755 478.644,197.018 474.692,196.189C473.424,195.942 472.105,195.694 470.753,195.425C467.558,194.81 464.241,194.175 461.227,193.342C459.114,192.761 452.225,190.467 452.225,185.316C452.225,179.646 458.518,176.589 464.429,176.589C469.395,176.589 473.535,177.425 478.833,181.562C479.247,181.888 479.828,182.261 480.537,182.261C481.061,182.261 481.563,182.08 482.103,181.694C483.57,180.613 486.254,178.349 488.027,176.576C488.445,176.153 488.64,175.69 488.615,175.206C488.574,174.454 488.016,173.839 487.729,173.602C480.644,167.982 473.826,165.682 464.212,165.657L464.142,165.657C450.39,165.657 440.008,174.497 440.008,186.217C440.008,195.504 447.643,202.1 461.482,204.818L470.148,206.479C475.844,207.525 479.046,210.55 478.935,214.785C478.833,218.913 473.77,223.188 465.452,223.188C458.662,223.188 452.681,220.537 447.67,215.989L447.597,215.917C447.243,215.596 446.82,215.205 446.251,215.205C445.853,215.205 445.431,215.39 444.976,215.745C444.454,216.169 438.667,220.745 438.049,221.392C437.766,221.696 437.633,222.017 437.639,222.354C437.653,222.889 438.006,223.389 438.326,223.683M529.224,225.118C529.823,225.118 530.161,225.585 530.161,226.096C530.161,226.581 529.823,227.045 529.187,227.045L527.848,227.045L527.848,225.118L529.224,225.118ZM529.978,228.324C531.074,228.048 531.544,227.068 531.544,226.096C531.544,224.912 530.798,223.737 529.224,223.737L526.438,223.737L526.438,230.908L527.848,230.908L527.848,228.43L528.317,228.43L530.096,230.908L531.811,230.908L529.978,228.324ZM528.882,233.207C532.157,233.207 534.735,230.57 534.735,227.291C534.735,224.019 532.157,221.357 528.882,221.357C525.611,221.357 523.026,224.019 523.026,227.291C523.026,230.57 525.611,233.207 528.882,233.207ZM528.882,220.092C532.848,220.092 536,223.323 536,227.291C536,231.259 532.848,234.465 528.882,234.465C524.922,234.465 521.787,231.259 521.787,227.291C521.787,223.323 524.922,220.092 528.882,220.092" style="fill:rgb(0,72,131);"/>
            </g>
            <path d="M158.748,255.816C127.929,286.642 77.942,286.638 47.125,255.816C16.292,224.986 16.292,175.003 47.125,144.183C77.949,113.36 127.929,113.36 158.742,144.186C189.575,175.002 189.575,224.985 158.748,255.815" style="fill:white;"/>
            <path d="M164.382,160.167C165.861,164.957 166.671,170.041 166.671,175.312C166.671,192.318 158.31,207.272 145.593,216.642C123.479,232.929 91.248,232.951 46.745,246.974C60.177,263.028 80.361,273.246 102.933,273.246C143.388,273.246 176.181,240.453 176.181,200C176.181,185.315 171.834,171.643 164.382,160.167" style="fill:rgb(0,72,131);"/>
            <path d="M146.861,141.394C134.621,132.194 119.415,126.752 102.935,126.752C62.482,126.752 29.69,159.552 29.69,200C29.69,216.282 35.002,231.32 43.986,243.479C93.249,229.135 132.147,190.492 146.861,141.394" style="fill:rgb(227,41,52);"/>
        </g>
    </g>
</svg>
