<?xml version="1.0" encoding="UTF-8" standalone="no"?>
<!DOCTYPE svg PUBLIC "-//W3C//DTD SVG 1.1//EN" "http://www.w3.org/Graphics/SVG/1.1/DTD/svg11.dtd">
<svg width="100%" height="100%" viewBox="0 0 199 49" version="1.1" xmlns="http://www.w3.org/2000/svg" xmlns:xlink="http://www.w3.org/1999/xlink" xml:space="preserve" xmlns:serif="http://www.serif.com/" style="fill-rule:evenodd;clip-rule:evenodd;stroke-linejoin:round;stroke-miterlimit:2;">
    <g transform="matrix(1,0,0,1,-0.601015,-0.499492)">
        <path d="M19.332,1.498C19.956,1.124 20.581,0.749 21.205,0.499C21.455,1.124 21.829,1.748 22.079,2.373C20.706,3.122 19.332,3.746 18.083,4.62C14.587,6.743 11.34,9.241 8.593,12.362C6.47,14.86 4.722,17.857 4.347,21.228C4.222,23.226 4.597,25.349 5.846,26.973C6.97,28.346 8.718,29.345 10.466,29.595C12.464,29.97 14.587,29.72 16.46,29.22C20.331,28.221 23.827,26.348 27.199,24.35C29.197,23.102 31.195,21.853 32.818,20.105C33.443,19.355 33.942,18.481 33.942,17.482C33.942,16.733 33.443,15.984 32.818,15.734C32.194,15.359 31.32,15.235 30.571,15.359C29.572,15.609 28.573,16.109 27.574,16.608C24.702,18.107 22.204,20.105 19.332,21.603C17.584,22.477 15.711,23.351 13.713,23.351C12.464,23.351 11.215,22.852 10.466,21.853C9.842,21.104 9.592,20.229 9.717,19.23C9.842,17.732 10.466,16.234 11.34,15.11C12.963,12.862 15.211,11.239 17.584,9.865C21.58,7.243 25.95,5.12 30.571,3.871C33.068,3.247 35.565,2.872 38.063,2.997C41.684,3.122 45.306,4.246 48.303,6.369C51.799,8.866 54.421,12.862 54.671,17.232C55.046,20.854 53.922,24.475 52.298,27.722C51.05,30.219 49.302,32.467 47.428,34.465C45.93,36.088 44.307,37.587 42.683,38.96C40.56,40.834 38.188,42.457 35.815,43.955C33.443,45.454 30.82,46.703 28.198,47.826C27.449,48.201 26.575,48.576 25.825,48.825C25.326,46.578 24.577,44.33 24.077,42.082C26.2,41.083 28.323,40.209 30.446,39.085C32.818,37.837 35.066,36.213 37.189,34.59C39.062,33.091 40.81,31.593 42.434,29.845C45.181,26.973 47.428,23.226 47.928,19.23C48.053,17.732 48.053,16.358 47.678,14.86C46.804,11.863 44.681,9.241 41.809,7.742C39.437,6.493 36.689,5.994 34.067,6.244C30.196,6.493 26.575,7.992 23.203,9.74C21.58,10.614 20.081,11.488 18.583,12.487C17.084,13.361 15.711,14.36 14.587,15.734C14.087,16.358 13.713,17.108 13.713,17.857C13.713,18.356 14.087,18.981 14.587,19.106C15.461,19.48 16.46,19.106 17.334,18.731C21.455,16.733 24.951,13.611 29.322,12.113C31.445,11.363 33.942,11.239 36.065,12.113C37.813,12.862 39.187,14.485 39.561,16.358C39.686,17.482 39.686,18.606 39.312,19.605C38.687,21.228 37.688,22.602 36.44,23.851C34.941,25.349 33.193,26.598 31.445,27.722C28.947,29.095 26.575,30.719 23.952,31.843C21.705,32.842 19.207,33.716 16.835,34.34C14.087,35.089 11.215,35.214 8.468,34.59C5.721,33.965 3.473,32.467 2.224,30.344C1.101,28.596 0.601,26.473 0.601,24.475C0.726,22.103 1.225,19.73 2.224,17.607C3.973,13.986 6.595,10.739 9.717,8.117C12.714,5.494 15.96,3.247 19.457,1.374L19.332,1.498Z" style="fill:rgb(112,191,78);fill-rule:nonzero;"/>
    </g>
    <g transform="matrix(1,0,0,1,-0.601015,-0.499492)">
        <path d="M67.283,18.356C68.782,17.482 70.53,17.482 72.153,17.857C73.027,17.982 73.777,18.606 74.401,19.23C73.902,19.73 73.402,20.229 72.778,20.729C71.779,19.355 69.656,19.106 68.282,19.98C67.408,20.604 67.158,21.978 67.783,22.852C68.407,23.601 69.406,23.851 70.405,24.225C71.529,24.475 72.778,24.85 73.652,25.849C74.526,26.723 74.651,27.972 74.526,29.095C74.401,30.344 73.652,31.468 72.528,32.092C71.404,32.717 70.155,32.966 68.907,32.842C67.408,32.717 65.91,32.092 65.036,30.844C65.535,30.344 66.159,29.845 66.659,29.47C67.783,31.093 70.28,31.593 71.779,30.344C72.653,29.72 72.903,28.346 72.153,27.472C71.404,26.723 70.28,26.473 69.281,26.223C68.157,25.849 67.034,25.349 66.284,24.35C65.66,23.601 65.535,22.477 65.535,21.478C65.66,20.229 66.409,19.23 67.408,18.606L67.283,18.356Z" style="fill:rgb(151,158,150);"/>
        <path d="M84.89,17.857L94.256,17.857L94.256,19.73L86.888,19.73L86.888,23.976L93.631,23.976L93.631,25.849L86.888,25.849C86.888,27.347 86.763,28.846 86.888,30.344C87.388,30.469 88.012,30.344 88.512,30.344L94.506,30.344L94.506,32.217L84.89,32.217L84.89,17.857Z" style="fill:rgb(151,158,150);"/>
        <path d="M109.615,17.857L111.363,17.857C113.361,22.602 115.484,27.347 117.482,32.217C116.733,32.217 115.984,32.342 115.235,32.217C114.735,31.093 114.236,29.845 113.736,28.721L106.993,28.721C106.774,29.212 106.58,29.728 106.388,30.247L106.224,30.691C106.032,31.21 105.838,31.726 105.619,32.217L103.372,32.217C104.246,30.141 105.168,28.041 106.095,25.938L106.891,24.136C107.819,22.033 108.741,19.933 109.615,17.857ZM107.742,26.973C108.616,24.85 109.49,22.602 110.489,20.479C111.363,22.602 112.238,24.85 113.112,26.973L107.742,26.973Z" style="fill:rgb(151,158,150);"/>
        <path d="M133.641,17.533C134.261,17.537 134.877,17.606 135.464,17.732C136.838,17.982 138.086,18.481 138.96,19.48C138.742,19.699 138.547,19.917 138.356,20.136L138.192,20.323C138,20.542 137.805,20.76 137.587,20.979C135.589,19.106 132.092,18.856 130.094,20.854C127.972,22.727 127.722,26.223 129.22,28.471C130.094,29.72 131.343,30.594 132.842,30.844C134.34,30.969 135.839,30.844 137.212,30.219L137.212,26.223L134.09,26.223L134.09,24.35L139.21,24.35L139.21,31.218C139.21,31.468 138.96,31.593 138.711,31.718C136.838,32.592 134.84,32.842 132.842,32.717C130.719,32.592 128.721,31.468 127.597,29.72C126.348,27.972 125.974,25.724 126.348,23.726C126.723,21.478 128.096,19.48 130.219,18.481L130.094,18.356C131.16,17.783 132.387,17.532 133.598,17.533L133.641,17.533Z" style="fill:rgb(151,158,150);"/>
        <path d="M156.692,17.857C158.69,22.602 160.813,27.347 162.811,32.217C162.062,32.217 161.313,32.342 160.563,32.217C159.939,31.093 159.564,29.845 159.065,28.721L152.322,28.721C152.103,29.212 151.909,29.728 151.717,30.247L151.553,30.691C151.361,31.21 151.167,31.726 150.948,32.217C150.199,32.342 149.45,32.217 148.701,32.217C150.823,27.472 152.946,22.602 155.069,17.857L156.692,17.857ZM153.071,26.973C153.945,24.85 154.819,22.602 155.818,20.479C156.692,22.602 157.566,24.85 158.441,26.973L153.071,26.973Z" style="fill:rgb(151,158,150);"/>
        <path d="M168.805,17.857L180.044,17.857L180.044,19.73L175.423,19.73L175.423,32.217L173.425,32.217L173.425,19.73L168.805,19.73L168.805,17.857Z" style="fill:rgb(151,158,150);"/>
        <path d="M189.784,17.857L199.024,17.857L199.024,19.73L191.782,19.73L191.782,23.976L198.65,23.976L198.65,25.849L191.782,25.849L191.782,30.344L199.399,30.344L199.399,32.217L189.784,32.217L189.784,17.857Z" style="fill:rgb(151,158,150);"/>
    </g>
</svg>
