<?xml version="1.0" encoding="UTF-8" standalone="no"?>
<!DOCTYPE svg PUBLIC "-//W3C//DTD SVG 1.1//EN" "http://www.w3.org/Graphics/SVG/1.1/DTD/svg11.dtd">
<svg width="100%" height="100%" viewBox="0 0 430 403" version="1.1" xmlns="http://www.w3.org/2000/svg" xmlns:xlink="http://www.w3.org/1999/xlink" xml:space="preserve" xmlns:serif="http://www.serif.com/" style="fill-rule:evenodd;clip-rule:evenodd;stroke-linejoin:round;stroke-miterlimit:2;">
    <g>
        <path d="M284,0L149.7,0L62.3,212.6L62.3,338.1L104.2,338.1L104.2,212.7L174.8,39.2L211.2,39.2L211.2,88.3C203.6,89.1 185.3,93.3 174.7,114.8C161,142.5 162,163 155.2,190C149.1,214 129.2,225.9 129.2,248.6C134.1,246.5 140.9,244.7 149.8,243.1C167.2,240 190.3,238.3 214.8,238.3C239.3,238.3 262.4,240 279.8,243.1C288.6,244.7 295.4,246.5 300.4,248.6C300.4,226 280.5,214 274.4,190C267.6,163 268.5,142.5 254.9,114.8C244.3,93.3 226,89.1 218.4,88.3L218.4,39.2L261.6,39.2L329.8,211.1L329.8,338.1L367,338.1L367,210.3L284,0Z" style="fill-rule:nonzero; fill: currentColor;"/>
        <path d="M130.1,259.6C136.5,263.8 165,270.5 214.7,270.5C264.4,270.5 292.9,263.8 299.3,259.6C292.9,255.4 264.4,248.8 214.7,248.8C165,248.8 136.5,255.5 130.1,259.6" style="fill-rule:nonzero; fill: currentColor;"/>
        <path d="M116.5,374.8L125.1,374.8L125.1,368.4L135.4,368.4L135.4,394.8L127.8,394.8L127.8,402.2L151.1,402.2L151.1,394.8L143.5,394.8L143.5,368.4L154.2,368.4L154.2,374.8L162.9,374.8L162.9,361L116.5,361L116.5,374.8Z" style="fill-rule:nonzero; fill: currentColor;"/>
        <path d="M277.4,368.4L285,368.4L285,394.8L277.4,394.8L277.4,402.2L322.7,402.2L322.7,388.1L314.1,388.1L314.1,394.8L293.1,394.8L293.1,385.1L300.8,385.1L300.8,390L309.1,390L309.1,372.9L300.8,372.9L300.8,377.9L293.1,377.9L293.1,368.4L314.1,368.4L314.1,374.8L322.7,374.8L322.7,361L277.4,361L277.4,368.4Z" style="fill-rule:nonzero; fill: currentColor;"/>
        <path d="M366.8,387.1L366.8,394.8L348.9,394.8L348.9,368.4L358.3,368.4L358.3,361L333.7,361L333.7,368.4L341.2,368.4L341.2,394.8L333.7,394.8L333.7,402.2L375.1,402.2L375.1,387.1L366.8,387.1Z" style="fill-rule:nonzero; fill: currentColor;"/>
        <path d="M417.2,387.1L417.2,394.8L399.4,394.8L399.4,368.4L408.7,368.4L408.7,361L384.1,361L384.1,368.4L391.6,368.4L391.6,394.8L384.1,394.8L384.1,402.2L425.5,402.2L425.5,387.1L417.2,387.1Z" style="fill-rule:nonzero; fill: currentColor;"/>
        <path d="M0,394.8L5.2,394.8L22.2,361L33.9,361L50.8,394.9L56,394.9L56,402.3L35.5,402.3L35.5,394.9L41.7,394.9L39.2,389.9L16.9,389.9L14.4,394.9L20.5,394.9L20.5,402.3L0,402.3L0,394.8ZM35.8,383L28,367.7L20.3,383L35.8,383Z" style="fill-rule:nonzero; fill: currentColor;"/>
        <path d="M221.4,394.8L229.1,394.8L229.1,368.4L221.4,368.4L221.4,361L251.8,361C263,361 268.4,363.4 268.4,370.9C268.4,376.3 265.3,379.6 258.6,380.5C266.1,381.5 269.9,384.9 269.9,390.5C269.9,398.8 264.1,402.3 251.8,402.3L221.4,402.3L221.4,394.8ZM250.9,376.8C256,376.8 258.7,376.4 258.7,372.5C258.7,368.9 256,368.4 250.5,368.4L237.2,368.4L237.2,376.8L250.9,376.8ZM250.9,394.8C257.1,394.8 260.1,393.6 260.1,389.3C260.1,385 257.2,384 250.4,384L237.1,384L237.1,394.8L250.9,394.8Z" style="fill-rule:nonzero; fill: currentColor;"/>
        <path d="M69.6,368.4L69.6,385.7C69.6,392.2 74,395.2 81.3,395.2C88.6,395.2 93,392.2 93,385.7L93,368.4L85.3,368.4L85.3,361L108.7,361L108.7,368.4L101,368.4L101,386.9C101,397.6 95.6,402.8 81.3,402.8C67,402.8 61.5,397.7 61.5,386.9L61.5,368.3L53.8,368.3L53.8,361L77.2,361L77.2,368.4L69.6,368.4Z" style="fill-rule:nonzero; fill: currentColor;"/>
        <path d="M214.4,380.1C213.8,367.6 205.4,360.2 191.8,360.1C178.2,360 169.7,367.6 169.2,380.1L169.2,382.8C169.8,395.3 178.2,402.7 191.8,402.8C205.4,402.9 213.9,395.3 214.4,382.8L214.4,380.1M205.5,387.5C203.4,394 197,395.3 191.9,395.3L191.5,395.3C186.5,395.3 180.1,393.9 177.9,387.5C176.7,383.5 176.7,379.3 177.9,375.3C180,368.9 186.4,367.5 191.5,367.5L191.9,367.5C196.9,367.5 203.3,368.9 205.5,375.3C206.7,379.3 206.7,383.5 205.5,387.5" style="fill-rule:nonzero; fill: currentColor;"/>
        <path d="M382.9,334.4L382.9,331.2L383.9,331.2C384.2,331.2 384.4,331.3 384.7,331.3C385,331.4 385.2,331.7 385.3,332C385.4,332.4 385.4,332.7 385.4,333.1C385.4,333.5 385.5,333.9 385.5,334.4L387.6,334.4L387.5,334.2L387.5,332.8C387.6,332 387.3,331.3 386.7,330.7C386.3,330.4 385.9,330.2 385.5,330.2C386,330.1 386.6,329.9 387,329.6C387.4,329.2 387.7,328.5 387.6,327.9C387.7,327 387.2,326.2 386.5,325.7C386,325.4 385.4,325.3 384.8,325.2L380.6,325.2L380.6,334.4L382.9,334.4ZM385.5,328.1C385.5,328.5 385.4,328.9 385,329.2C384.6,329.4 384.2,329.6 383.8,329.5L382.9,329.5L382.9,326.8L383.4,326.8C383.8,326.8 384.3,326.9 384.7,327C385.2,327.2 385.5,327.6 385.5,328.1M391.8,329.8C391.8,327.6 391,325.5 389.5,323.9C388.1,322.3 386.1,321.5 384,321.5C382,321.5 380.1,322.3 378.6,323.7C377,325.3 376.1,327.5 376.2,329.7C376.1,331.9 377,334 378.4,335.6C381.2,338.7 386,338.8 389,336C389.1,335.9 389.3,335.7 389.4,335.6C391.1,334.1 391.9,332 391.8,329.8M384.1,323C385.8,323 387.5,323.8 388.6,325.1C391.1,327.8 391.1,332 388.6,334.8C386.4,337.3 382.5,337.5 380,335.3C379.8,335.2 379.7,335 379.5,334.8C378.3,333.5 377.6,331.7 377.6,329.9C377.6,328.1 378.2,326.4 379.5,325.1C380.7,323.7 382.4,323 384.1,323" style="fill-rule:nonzero; fill: currentColor;"/>
        <path d="M420.3,370.2L420.3,367L421.3,367C421.6,367 421.8,367.1 422.1,367.1C422.4,367.2 422.6,367.5 422.7,367.8C422.8,368.2 422.8,368.5 422.8,368.9C422.8,369.3 422.8,369.7 422.9,370.2L425,370.2L425,368.6C425.1,367.8 424.8,367.1 424.2,366.6C423.8,366.3 423.4,366.2 423,366.1C423.5,366 424.1,365.8 424.5,365.5C424.9,365.1 425.2,364.4 425.1,363.8C425.2,362.9 424.7,362.1 424,361.6C423.5,361.3 422.9,361.2 422.3,361.1L418,361.1L418,370.3L420.3,370.2ZM422.8,363.9C422.8,364.3 422.7,364.7 422.3,365C421.9,365.2 421.5,365.4 421.1,365.3L420.2,365.3L420.2,362.6L420.7,362.6C421.1,362.6 421.6,362.6 422,362.8C422.6,363 422.9,363.4 422.8,363.9M429.2,365.6C429.2,363.4 428.4,361.3 426.9,359.7C425.5,358.1 423.5,357.3 421.4,357.3C419.4,357.3 417.5,358.1 416,359.5C414.4,361.1 413.5,363.3 413.6,365.5C413.5,367.7 414.3,369.8 415.8,371.4C418.6,374.5 423.4,374.6 426.4,371.8C426.5,371.7 426.6,371.6 426.8,371.4C428.4,370 429.3,367.8 429.2,365.6M421.4,358.7C423.1,358.7 424.8,359.4 425.9,360.8C428.4,363.5 428.4,367.7 425.9,370.5C423.7,373 419.8,373.2 417.3,371C417.1,370.8 417,370.7 416.8,370.5C415.6,369.2 414.9,367.4 414.9,365.6C414.9,363.8 415.5,362.1 416.8,360.8C418,359.5 419.7,358.7 421.4,358.7" style="fill-rule:nonzero; fill: currentColor;"/>
    </g>
</svg>
