<?xml version="1.0" encoding="UTF-8" standalone="no"?>
<!DOCTYPE svg PUBLIC "-//W3C//DTD SVG 1.1//EN" "http://www.w3.org/Graphics/SVG/1.1/DTD/svg11.dtd">
<svg width="100%" height="100%" viewBox="0 0 681 751" version="1.1" xmlns="http://www.w3.org/2000/svg" xmlns:xlink="http://www.w3.org/1999/xlink" xml:space="preserve" xmlns:serif="http://www.serif.com/" style="fill-rule:evenodd;clip-rule:evenodd;stroke-linejoin:round;stroke-miterlimit:2;">
    <g id="g356" transform="matrix(8.33333,0,0,8.33333,-43.0583,-41.6667)">
        <path id="path354" d="M80.698,90.053C73.882,93.9 62.188,95 46.013,95C29.838,95 18.144,93.9 11.329,90.053C7.237,87.749 5.167,84.608 5.167,82.356C5.167,81.074 5.849,80.34 7.368,80.34L84.657,80.34C86.177,80.34 86.859,81.074 86.859,82.356C86.86,84.608 84.789,87.749 80.699,90.053L80.698,90.053M84.657,30.366L7.368,30.366C5.848,30.366 5.167,29.581 5.167,28.168C5.167,19.79 17.777,5 46.013,5C73.988,5 86.86,19.79 86.86,28.168C86.86,29.581 86.178,30.366 84.657,30.366" style="fill-rule:nonzero; fill:currentColor;"/>
    </g>
    <g id="g362" transform="matrix(8.33333,0,0,8.33333,-43.0583,-41.6667)">
        <path id="path360" d="M21.63,64.922C21.394,64.556 21.369,64.32 21.369,64.216C21.369,63.928 21.526,63.719 21.84,63.431C22.574,62.749 24.384,61.048 25.38,59.504C26.14,58.326 26.454,57.253 26.454,56.364C26.454,54.086 24.384,52.305 22.128,52.305C20.686,52.305 19.323,53.117 18.406,54.609C17.174,56.598 15.705,58.902 14.762,59.819C14.526,60.055 14.395,60.107 14.212,60.107C13.897,60.107 13.766,59.897 13.766,59.557L13.766,56.94C13.766,54.375 12.246,52.306 9.493,52.306C6.714,52.306 5.219,54.374 5.219,56.94L5.219,73.066C5.219,75.631 6.713,77.701 9.493,77.701C12.246,77.701 13.766,75.633 13.766,73.066L13.766,69.35C13.766,69.035 13.897,68.8 14.212,68.8C14.632,68.8 14.737,69.219 14.842,69.428C15.445,70.868 17.2,73.93 18.827,75.737C19.928,76.941 21.291,77.701 22.733,77.701C25.171,77.701 27.217,75.58 27.217,73.302C27.217,71.889 26.613,70.842 25.46,69.586C23.991,67.986 22.26,65.891 21.63,64.923L21.63,64.922M54.325,50.812C58.441,50.812 61.037,48.194 61.037,44.372C61.037,41.938 59.567,40.262 56.632,40.262L55.794,40.262C54.246,40.262 53.04,40.996 53.04,42.645C53.04,44.111 54.325,44.818 55.295,44.818C55.793,44.818 56.109,44.975 56.109,45.342C56.109,45.812 55.559,46.127 54.929,46.127C52.962,46.127 51.625,44.739 51.625,42.147C51.625,39.268 53.461,38.222 54.876,38.222C56.606,38.222 56.895,39.112 58.101,39.112C59.491,39.112 60.435,37.96 60.435,36.756C60.435,35.866 60.041,35.186 59.438,34.714C58.337,33.902 56.791,33.301 54.484,33.301C50.419,33.301 46.461,35.971 46.461,42.149C46.459,48.063 50.418,50.812 54.325,50.812M8.233,50.655L11.931,50.655C15.418,50.655 17.541,48.325 17.541,45.419C17.541,43.089 16.151,42.016 15.837,41.754C15.707,41.649 15.576,41.545 15.576,41.44C15.576,41.31 15.654,41.257 15.786,41.1C16.283,40.524 16.781,39.608 16.781,38.272C16.781,35.132 14.657,33.455 11.354,33.455L8.234,33.455C6.163,33.455 5.167,34.661 5.167,36.283L5.167,47.827C5.167,49.451 6.163,50.655 8.233,50.655M9.781,37.959C9.781,37.619 9.991,37.356 10.436,37.356L10.777,37.356C11.904,37.356 12.246,38.141 12.246,38.823C12.246,39.451 11.906,40.341 10.777,40.341L10.437,40.341C9.991,40.341 9.781,40.08 9.781,39.739L9.781,37.959M9.781,44.085C9.781,43.745 9.991,43.482 10.436,43.482L10.908,43.482C12.167,43.482 12.533,44.319 12.533,45.079C12.533,45.761 12.166,46.729 10.908,46.729L10.437,46.729C9.991,46.729 9.781,46.467 9.781,46.126L9.781,44.085M76.688,50.785C78.366,50.785 79.283,49.528 79.283,47.958L79.283,45.183C79.283,44.843 79.441,44.686 79.703,44.686C80.017,44.686 80.121,44.869 80.173,45.183C80.41,46.518 81.039,48.324 81.746,49.241C82.638,50.42 83.476,50.787 84.316,50.787C85.678,50.787 86.859,49.713 86.859,48.377C86.859,47.487 86.492,46.832 86.02,46.231C85.128,45.106 84.578,44.373 84.238,43.457C84.159,43.247 84.211,43.063 84.448,42.881C85.261,42.253 86.205,40.865 86.205,38.667C86.205,35.342 83.451,33.457 80.121,33.457L77.16,33.457C75.089,33.457 74.093,34.66 74.093,36.284L74.093,47.96C74.093,49.53 75.01,50.785 76.689,50.785L76.688,50.785M78.995,38.405C78.995,38.065 79.205,37.801 79.65,37.801L80.017,37.801C81.119,37.801 81.459,38.587 81.459,39.268C81.459,39.923 81.119,40.786 80.017,40.786L79.65,40.786C79.204,40.786 78.995,40.526 78.995,40.184L78.995,38.404L78.995,38.405M33.586,52.304C30.65,52.304 29.05,54.502 29.05,57.251L29.05,72.75C29.05,75.5 30.65,77.698 33.586,77.698C36.522,77.698 38.121,75.499 38.121,72.75L38.121,57.251C38.121,54.504 36.523,52.304 33.586,52.304M80.2,62.383L78.916,62.383C76.609,62.383 74.826,63.456 74.826,65.811C74.826,67.958 76.766,68.979 78.208,68.979C78.916,68.979 79.414,69.189 79.414,69.738C79.414,70.418 78.575,70.863 77.684,70.863C74.721,70.863 72.702,68.847 72.702,65.103C72.702,60.941 75.455,59.423 77.578,59.423C80.174,59.423 80.593,60.733 82.402,60.733C84.499,60.733 85.915,59.031 85.915,57.303C85.915,56.021 85.338,55.026 84.421,54.345C82.821,53.166 80.41,52.302 77.001,52.302C70.893,52.302 64.941,56.15 64.941,65.103C64.941,73.663 70.891,77.669 76.765,77.669C82.925,77.669 86.832,73.873 86.832,68.323C86.833,64.817 84.632,62.383 80.2,62.383M70.29,50.655C71.76,50.655 72.913,49.791 72.913,48.22C72.913,46.675 71.759,45.811 70.291,45.811L67.931,45.811C67.486,45.811 67.276,45.55 67.276,45.209L67.276,44.711C67.276,44.371 67.486,44.109 67.932,44.109L69.741,44.109C71,44.109 71.996,43.35 71.996,42.014C71.996,40.68 71,39.92 69.741,39.92L67.931,39.92C67.486,39.92 67.276,39.658 67.276,39.317L67.276,38.898C67.276,38.558 67.486,38.296 67.932,38.296L70.291,38.296C71.759,38.296 72.913,37.432 72.913,35.862C72.913,34.316 71.759,33.452 70.291,33.452L65.336,33.452C63.266,33.452 62.269,34.656 62.269,36.28L62.269,47.824C62.269,49.447 63.265,50.652 65.336,50.652L70.291,50.652L70.291,50.655L70.29,50.655M25.249,50.785C29.496,50.785 31.751,48.245 31.751,45.053L31.751,36.23C31.751,34.66 30.834,33.402 29.155,33.402C27.477,33.402 26.56,34.66 26.56,36.23L26.56,44.764C26.56,45.391 26.193,46.124 25.249,46.124C24.305,46.124 23.989,45.391 23.989,44.764L23.989,36.23C23.989,34.66 23.046,33.402 21.367,33.402C19.689,33.402 18.772,34.66 18.772,36.23L18.772,45.052C18.773,48.246 21.002,50.784 25.249,50.784L25.249,50.785M43.654,50.785C45.017,50.785 46.198,49.712 46.198,48.376C46.198,47.486 45.831,46.831 45.359,46.23C44.599,45.235 43.917,44.371 43.577,43.456C43.498,43.246 43.55,43.062 43.787,42.879C44.6,42.252 45.544,40.864 45.544,38.665C45.544,35.34 42.79,33.455 39.46,33.455L36.496,33.455C34.426,33.455 33.429,34.659 33.429,36.283L33.429,47.959C33.429,49.529 34.347,50.787 36.025,50.787C37.703,50.787 38.621,49.529 38.621,47.959L38.621,45.185C38.621,44.845 38.778,44.687 39.04,44.687C39.355,44.687 39.459,44.87 39.511,45.185C39.747,46.519 40.376,48.325 41.084,49.243C41.976,50.419 42.814,50.785 43.654,50.785M39.354,40.785L38.986,40.785C38.54,40.785 38.331,40.524 38.331,40.183L38.331,38.404C38.331,38.064 38.541,37.801 38.986,37.801L39.353,37.801C40.455,37.801 40.795,38.587 40.795,39.268C40.795,39.921 40.455,40.785 39.353,40.785L39.354,40.785M58.728,52.304C56.028,52.304 54.56,54.319 54.56,56.859L54.56,62.513C54.56,62.983 54.402,63.194 54.114,63.194C53.904,63.194 53.747,63.064 53.564,62.697L49.92,55.63C48.53,52.933 47.088,52.305 45.437,52.305C42.684,52.305 41.163,54.372 41.163,56.965L41.163,73.144C41.163,75.684 42.631,77.699 45.331,77.699C48.032,77.699 49.499,75.683 49.499,73.144L49.499,67.49C49.499,67.02 49.657,66.808 49.945,66.808C50.155,66.808 50.313,66.939 50.495,67.306L54.139,74.374C55.529,77.071 57.023,77.699 58.623,77.699C61.376,77.699 62.897,75.631 62.897,73.039L62.897,56.86C62.897,54.32 61.429,52.305 58.728,52.305L58.728,52.304" style="fill-rule:nonzero; fill:currentColor;"/>
    </g>
</svg>
