<?xml version="1.0" encoding="UTF-8" standalone="no"?>
<!DOCTYPE svg PUBLIC "-//W3C//DTD SVG 1.1//EN" "http://www.w3.org/Graphics/SVG/1.1/DTD/svg11.dtd">
<svg width="100%" height="100%" viewBox="0 0 503 72" version="1.1" xmlns="http://www.w3.org/2000/svg" xmlns:xlink="http://www.w3.org/1999/xlink" xml:space="preserve" xmlns:serif="http://www.serif.com/" style="fill-rule:evenodd;clip-rule:evenodd;stroke-linejoin:round;stroke-miterlimit:2;">
    <g>
        <path d="M416.8,21.2C415.8,21.2 415.2,20.4 415.2,19.6L415.2,12.6C415.2,11.7 415.9,11 416.8,11L454.7,11C455.7,11 456.3,11.8 456.3,12.6L456.3,19.6C456.3,20.5 455.6,21.2 454.7,21.2L416.8,21.2ZM368.5,21.2C367.5,21.2 366.9,20.4 366.9,19.6L366.9,12.6C366.9,11.7 367.6,11 368.5,11L406.4,11C407.4,11 408,11.8 408,12.6L408,19.6C408,20.5 407.3,21.2 406.4,21.2L368.5,21.2Z" style="fill-rule:nonzero; fill:currentColor;"/>
        <path d="M157.9,18.9L152.2,31.6L160.9,50.5L143.7,50.5L139.4,60L165.1,60L169.3,69.3C169.9,70.5 170.5,71 171.8,71L179.3,71C180.6,71 181.3,69.9 180.8,68.8L157.9,18.9ZM501.3,60.7L476,60.7L476,71L501.4,71C502.3,71 503,70.2 503,69.4L503,62.4C503,61.5 502.3,60.7 501.3,60.7ZM501.3,10.9L476,10.9L476,21.2L501.4,21.2C502.3,21.2 503,20.4 503,19.6L503,12.6C503,11.7 502.3,10.9 501.3,10.9ZM498.8,44.1L498.8,37C498.8,36.1 498,35.4 497.2,35.4L476,35.4L476,45.8L497.2,45.8C498,45.7 498.8,45 498.8,44.1ZM112.6,10.9L104.7,10.9C103.8,10.9 103.1,11.7 103.1,12.5L103.1,35.3L89.5,35.3L89.5,45.7L103.1,45.7L103.1,69.4C103.1,70.3 103.8,71 104.7,71L112.6,71C113.5,71 114.2,70.2 114.2,69.4L114.2,12.5C114.3,11.7 113.5,10.9 112.6,10.9ZM223,47.4L211,47.4L222.5,70.2C222.7,70.5 223.1,71 223.9,71L233,71C234.5,71 235.1,69.6 234.5,68.5L223,47.4ZM277.7,60.7L255.7,60.7L255.7,71L277.7,71C278.6,71 279.3,70.2 279.3,69.4L279.3,62.4C279.3,61.5 278.6,60.7 277.7,60.7ZM46.5,55.6C46,55.1 45,55 44.4,55.6C40.8,58.5 36.4,60.5 31.3,60.5C30.8,60.5 30.2,60.5 29.7,60.4C29.2,60.4 28.6,60.3 28.1,60.2L26.6,59.9C26.1,59.8 25.6,59.6 25.1,59.5C24.6,59.3 24.1,59.1 23.7,58.9C23.2,58.7 22.8,58.5 22.3,58.2C21.9,58 21.4,57.7 21,57.4L19.8,56.5C19.4,56.2 19,55.9 18.7,55.5C18.3,55.2 18,54.8 17.6,54.5C17.3,54.1 16.9,53.8 16.6,53.4L15.7,52.2C15.4,51.8 15.1,51.4 14.9,50.9C14.6,50.5 14.4,50 14.2,49.6C14,49.1 13.8,48.7 13.6,48.2C13.4,47.7 13.2,47.2 13.1,46.8C12.9,46.3 12.8,45.8 12.7,45.3L12.4,43.8C12.3,43.3 12.3,42.8 12.2,42.2C12.2,41.9 12.2,41.6 12.1,41.4L12.1,40.6L0,40.6L0,41C0,58.1 13.8,71.7 30.9,71.7C38.5,71.7 45.9,69 51.7,63.4C52.3,62.8 52.5,61.7 51.8,61.1L46.5,55.6ZM430.3,21.2L430.3,69.4C430.3,70.2 431.1,71 431.9,71L439.7,71C440.5,71 441.3,70.2 441.3,69.4L441.3,21.2L430.3,21.2ZM381.7,21.2L381.7,69.6C381.7,70.4 382.5,71.2 383.3,71.2L391.1,71.2C391.9,71.2 392.7,70.4 392.7,69.6L392.7,21.2L381.7,21.2ZM358.9,62L358.9,69.8C358.9,70.5 358.4,71 357.7,71L323.8,71L323.8,60.8L357.7,60.8C358.4,60.8 358.9,61.4 358.9,62ZM328.1,28.2C328.2,26.8 329.2,23.8 334.9,23.8C342.5,23.8 342.5,31.4 342.5,31.4C342.5,35.9 341.6,38 332.3,49.8C331.3,51.1 330.1,52.6 328.9,54.2L340,54.2C349.1,42.6 351.2,38.9 351.2,31.4C351.2,30.7 351.1,30 351,29.3C355.5,29.3 355.9,33.7 355.9,35.6C355.9,40.1 355,42.2 345.7,54L345.5,54.2L356.6,54.2C363,45.7 364.6,42.1 364.6,35.6C364.6,28.3 360.3,20.5 350.9,20.5C349.6,20.5 348.4,20.6 347.4,20.9C344.8,17.6 340.7,15 334.7,15C329.7,15 326.1,16.6 323.6,18.7L323.5,18.6L323.5,54.1L327.8,54.1L327.8,28.2L328.1,28.2ZM330.2,6.4C330.2,2.9 327.4,0.1 323.9,0C320.4,0.1 317.6,2.9 317.6,6.4C317.6,9.9 320.4,12.7 323.9,12.8C327.4,12.7 330.2,9.9 330.2,6.4Z" style="fill-rule:nonzero; fill:currentColor;"/>
        <path d="M0,40.6L12,40.6C12.3,30.1 20.3,21.3 31,21.3C35.8,21.3 40.6,23.2 44.2,26.3C44.9,27 45.7,27 46.3,26.3L51.5,20.9C52.2,20.2 52.2,19.2 51.4,18.5C45.6,13.3 39.4,10.6 30.7,10.6C14,10.6 0.4,23.9 0,40.6ZM216.5,11L192,11C191.1,11 190.4,11.8 190.4,12.6L190.4,69.3C190.4,70.2 191.1,70.9 192,70.9L199.9,70.9C200.8,70.9 201.5,70.1 201.5,69.3L201.5,47.5L223,47.5C230.5,44.5 235.2,37.3 235.2,29.5C235.2,19.2 226.8,11 216.5,11ZM215.6,38.3L201.6,38.3L201.6,21.3L215.6,21.3C220.1,21.3 224.1,25.1 224.1,29.6C224,34.4 220.1,38.3 215.6,38.3ZM153,10.2L152.1,10.2C151.3,10.2 150.9,10.6 150.6,11.1L124,68.8C123.5,69.9 124.2,71 125.5,71L133,71C134.4,71 135.1,70.1 135.5,69.3L158,18.8L154.5,11.1C154.2,10.7 153.8,10.2 153,10.2ZM75.1,12.6C75.1,11.7 74.4,11 73.5,11L65.5,11C64.6,11 63.9,11.8 63.9,12.6L63.9,69.4C63.9,70.3 64.7,71 65.5,71L73.5,71C74.4,71 75.1,70.2 75.1,69.4L75.1,45.7L89.5,45.7L89.5,35.3L75.1,35.3L75.1,12.6ZM476,10.9L466.5,10.9C465.6,10.9 464.9,11.7 464.9,12.5L464.9,69.4C464.9,70.3 465.6,71 466.5,71L476,71L476,10.9ZM254,10.9L246.1,10.9C245.1,10.9 244.5,11.7 244.5,12.5L244.5,69.4C244.5,70.3 245.2,71 246.1,71L255.7,71L255.7,12.5C255.6,11.7 254.9,10.9 254,10.9ZM312.7,15.1C306.7,15.1 302.6,17.6 300,21C299,20.8 297.8,20.6 296.5,20.6C287.1,20.6 282.8,28.4 282.8,35.7C282.8,42.2 284.4,45.9 290.8,54.3L301.9,54.3L301.7,54.1C292.4,42.3 291.5,40.2 291.5,35.7C291.5,33.8 292,29.4 296.4,29.4C296.3,30.1 296.2,30.9 296.2,31.5C296.2,39 298.3,42.7 307.4,54.3L318.5,54.3C317.3,52.7 316.1,51.3 315.1,49.9C306,38.1 305.1,36 305.1,31.5C305.1,31.4 305.2,23.9 312.7,23.9C318.4,23.9 319.4,26.9 319.5,28.3L319.5,54.3L328.2,54.3C328.2,47.9 328.1,39.1 328.1,29C328.1,25.3 326.8,22.1 323.8,18.8L323.7,18.9C321.3,16.6 317.7,15.1 312.7,15.1ZM290,60.8L328.2,60.8L328.2,71L290,71C289.3,71 288.8,70.5 288.8,69.8L288.8,62C288.8,61.4 289.4,60.8 290,60.8Z" style="fill-rule:nonzero; fill:currentColor;"/>
    </g>
</svg>
