<?xml version="1.0" encoding="UTF-8" standalone="no"?>
<!DOCTYPE svg PUBLIC "-//W3C//DTD SVG 1.1//EN" "http://www.w3.org/Graphics/SVG/1.1/DTD/svg11.dtd">
<svg width="100%" height="100%" viewBox="0 0 295 336" version="1.1" xmlns="http://www.w3.org/2000/svg" xmlns:xlink="http://www.w3.org/1999/xlink" xml:space="preserve" xmlns:serif="http://www.serif.com/" style="fill-rule:evenodd;clip-rule:evenodd;stroke-linejoin:round;stroke-miterlimit:2;">
    <g>
        <g>
            <path d="M232.49,320.19L230.03,320.19L230.03,319.23L235.99,319.23L235.99,320.19L233.55,320.19L233.55,326.67L232.49,326.67L232.49,320.19Z" style="fill-rule:nonzero; fill:currentColor;"/>
            <path d="M240.13,326.67L237.91,321.38L237.91,326.67L236.94,326.67L236.94,319.23L238.07,319.23L240.6,325.25L243.13,319.23L244.25,319.23L244.25,326.67L243.21,326.67L243.21,321.38L240.99,326.67L240.13,326.67Z" style="fill-rule:nonzero; fill:currentColor;"/>
        </g>
        <path d="M274.266,73.761C280.45,74.453 286.587,75.253 292.67,76.16L295.08,76.52L274.277,119.999L274.31,266.71C274.31,281.95 264.61,295.48 250.17,300.36L150.05,334.2L149.8,334.28L49.44,300.36C35,295.48 25.29,281.96 25.29,266.71L25.29,125.892L25.27,125.9L0.92,70.44L3.47,70.26C10.668,69.737 17.954,69.361 25.29,69.132L25.29,1.72L274.25,1.72L274.266,73.761ZM161.07,280.59C161.07,274.45 163.78,273.27 167.65,273.27C171.52,273.27 174.2,274.41 174.2,280.55C174.2,286.69 171.49,287.91 167.62,287.91C163.75,287.91 161.07,286.72 161.07,280.59ZM70.6,280.59C70.6,274.45 73.08,273.29 76.95,273.29C79.27,273.29 80.34,273.58 81,273.72L80.51,276.14C79.47,275.96 78.42,275.79 76.91,275.79C74.43,275.79 73.58,276.8 73.58,280.03L73.58,281.08C73.58,284.24 74.45,285.44 76.95,285.44C78.81,285.44 80.11,285.11 80.53,285.03L81,287.4C80.24,287.61 79.18,287.86 76.91,287.86C73,287.87 70.6,286.72 70.6,280.59ZM184.56,276L179.95,276L179.95,273.5L192,273.5L192,276L187.41,276L187.41,287.67L184.56,287.67L184.56,276ZM138.9,287.67L135.65,287.67L132.61,283.16L129.92,283.16L129.92,287.67L127.09,287.67L127.09,273.5L132.74,273.5C136.25,273.5 137.97,274.33 137.97,278.3C137.97,281.07 137.1,282.13 135.45,282.54L138.9,287.67ZM145.64,273.5L148.49,273.5L148.49,285.23L155.4,285.23L155.4,287.67L145.64,287.67L145.64,273.5ZM202.49,276L197.88,276L197.88,273.5L209.93,273.5L209.93,276L205.34,276L205.34,287.67L202.49,287.67L202.49,276ZM109.68,287.67L106.83,287.67L112.33,273.4L114.94,273.4L120.44,287.67L117.44,287.67L116.49,285.11L110.62,285.11L109.68,287.67ZM88.15,273.5L90.99,273.5L90.99,279L97.32,279L97.32,273.5L100.19,273.5L100.19,287.67L97.32,287.67L97.32,281.61L90.99,281.61L90.99,287.67L88.15,287.67L88.15,273.5ZM216.69,273.5L226.12,273.5L226.12,276L219.53,276L219.53,279.15L224.73,279.15L224.73,281.65L219.53,281.65L219.53,285.23L226.12,285.23L226.12,287.67L216.69,287.67L216.69,273.5ZM171.22,281.11L171.22,280.06C171.22,276.65 170.06,275.72 167.62,275.72C165.18,275.72 164.06,276.61 164.06,280.02L164.06,281.07C164.06,284.48 165.22,285.49 167.66,285.49C170.1,285.49 171.22,284.52 171.22,281.11ZM113.57,277.24C113.57,277.24 111.5,282.82 111.48,282.82L115.64,282.82L113.57,277.24ZM132.75,280.86C134.28,280.86 135.13,280.51 135.13,278.34C135.13,276.15 134.18,275.84 132.71,275.84L129.92,275.84L129.92,280.86L132.75,280.86ZM54,207.75L91.09,207.75L91.09,219.52L67.79,219.52L67.79,230.53L86.58,230.53L86.58,241.61L67.79,241.61L67.79,259.02L54,259.02L54,207.75ZM102.06,259.02L88.13,259.02L108.4,207.4L121.14,207.4L141.41,259.02L126.77,259.02L124.17,251.92L104.68,251.92L102.06,259.02ZM167.99,259.02L158.28,228.44L158.28,259.02L146.18,259.02L146.18,207.75L163.42,207.75L173.83,240.56L184.32,207.75L201.56,207.75L201.56,259.02L188.4,259.02L188.4,228.44L178.69,259.02L167.99,259.02ZM209.72,207.75L246.81,207.75L246.81,219.52L223.51,219.52L223.51,227.4L242.3,227.4L242.3,239.17L223.51,239.17L223.51,247.6L246.81,247.6L246.81,259.02L209.72,259.02L209.72,207.75ZM114.44,225.45L108.6,241.19L120.21,241.19L114.44,225.45ZM135.87,190.71C135.87,183.78 138.97,182.56 143.73,182.56C148.52,182.56 151.55,183.74 151.55,190.67C151.55,197.6 148.47,198.86 143.69,198.86C138.92,198.86 135.87,197.64 135.87,190.71ZM153.52,182.82L164.94,182.82L164.94,186.45L157.77,186.45L157.77,189.84L163.55,189.84L163.55,193.25L157.77,193.25L157.77,198.61L153.52,198.61L153.52,182.82ZM147.11,191.34L147.11,190.1C147.11,187.12 146.35,186.13 143.69,186.13C141.05,186.13 140.31,187.07 140.31,190.05L140.31,191.29C140.31,194.27 141.09,195.39 143.73,195.39C146.4,195.39 147.11,194.32 147.11,191.34ZM54,122.75L67.79,122.75L67.79,141.7L87.08,141.7L87.08,122.75L100.94,122.75L100.94,174.03L87.08,174.03L87.08,154.17L67.79,154.17L67.79,174.03L54,174.03L54,122.75ZM166.49,122.75L180.29,122.75L180.29,162.6L203.58,162.6L203.58,174.03L166.49,174.03L166.49,122.75ZM121.01,174.03L107.08,174.03L127.35,122.41L140.09,122.41L160.36,174.03L145.72,174.03L143.12,166.92L123.63,166.92L121.01,174.03ZM209.72,122.75L223.51,122.75L223.51,162.6L246.81,162.6L246.81,174.03L209.72,174.03L209.72,122.75ZM133.4,140.45L127.56,156.19L139.17,156.19L133.4,140.45ZM203.346,96.034C198.182,95.788 193.009,95.622 187.888,95.54L186.136,95.52C128.477,94.771 71.971,104.194 26.851,122.039L5.379,73.134C20.598,72.078 36.199,71.681 51.79,71.94L51.79,71.94C104.935,72.819 157.114,81.124 203.346,96.034ZM290.62,78.892L272.886,115.954C242.604,98.554 206.785,84.96 166.324,75.526C179.719,74.356 193.317,73.675 206.859,73.5L206.859,73.5C235.351,73.129 263.519,74.938 290.62,78.892ZM54.52,22.95L44.77,58.03L48.81,58.03L58.53,22.95L54.52,22.95ZM61.16,22.95L51.41,58.03L55.45,58.03L65.16,22.95L61.16,22.95ZM68.85,22.95L59.1,58.03L65.61,58.03L75.32,22.95L68.85,22.95ZM77.98,22.95L68.23,58.03L74.73,58.03L84.45,22.95L77.98,22.95ZM162.2,22.93L155.84,27.78L152.77,38.72L156.33,43.75L166.63,43.75L164.53,51.32L156.03,51.32L157.03,47.72L150.27,47.72L148.84,53L152.49,57.99L164.44,57.99L170.82,53.07L173.86,42.02L170.27,37.03L159.98,37.03L162.06,29.56L170.52,29.56L169.51,33.19L176.29,33.19L177.83,27.78L174.3,22.93L162.2,22.93ZM234.71,22.93L224.97,57.99L231.72,57.99L234.63,47.49L240.12,47.49L241.38,57.99L247.98,57.99L246.53,46.04L251.28,42.19L255.28,27.78L251.73,22.93L234.71,22.93ZM120.75,22.93L115.27,42.72L112.02,22.93L105.33,22.93L95.59,57.99L102.35,57.99L107.92,38.12L111.22,57.99L117.81,57.99L127.52,22.93L120.75,22.93ZM213.79,22.93L207.46,27.78L199.09,57.99L205.84,57.99L208.75,47.5L217.26,47.5L214.35,57.99L221.11,57.99L229.48,27.75L225.94,22.94L213.79,22.94L213.79,22.93ZM188.01,22.93L181.63,27.78L174.63,53.03L178.31,57.99L190.26,57.99L196.65,53.03L198.61,45.9L191.86,45.9L190.36,51.32L181.87,51.32L187.93,29.52L196.39,29.52L194.87,35.02L201.62,35.02L203.65,27.78L200.17,22.93L188.01,22.93ZM88.18,22.94L78.44,57.99L91.91,57.99L101.62,22.94L88.18,22.94ZM136.34,22.93L130.04,27.74L121.63,57.98L128.38,57.98L131.29,47.49L139.8,47.49L136.89,57.98L143.62,57.98L152.03,27.77L148.49,22.92L136.34,22.92L136.34,22.93ZM239.6,29.52L248.06,29.52L244.91,40.85L236.46,40.85L239.6,29.52ZM213.71,29.52L222.22,29.52L219.09,40.84L210.58,40.84L213.71,29.52ZM136.26,29.52L144.77,29.52L141.64,40.84L133.13,40.84L136.26,29.52Z" style="fill:currentColor;"/>
    </g>
</svg>
