<?xml version="1.0" encoding="UTF-8" standalone="no"?>
<!DOCTYPE svg PUBLIC "-//W3C//DTD SVG 1.1//EN" "http://www.w3.org/Graphics/SVG/1.1/DTD/svg11.dtd">
<svg width="100%" height="100%" viewBox="0 0 163 231" version="1.1" xmlns="http://www.w3.org/2000/svg" xmlns:xlink="http://www.w3.org/1999/xlink" xml:space="preserve" xmlns:serif="http://www.serif.com/" style="fill-rule:evenodd;clip-rule:evenodd;stroke-linejoin:round;stroke-miterlimit:2;">
    <g transform="matrix(1,0,0,1,-32.687,-44.1664)">
        <path d="M109.5,250.2C109.5,249.9 109.4,249.4 109.4,248.9C109.3,248 109.1,247.2 108.8,246.3C106.8,240 101.5,235.9 95.2,235.9C94.6,235.9 93.9,235.9 93.3,236C85.2,237 79.8,244.3 80.8,252.6C81.6,259.9 87.8,265.4 95.2,265.3C95.8,265.3 96.5,265.3 97.1,265.2C101,264.8 104.6,262.9 107,259.9C107.1,259.7 107.2,259.5 107.2,259.3C107.2,259.1 107,258.9 106.9,258.8C106,258.3 105.1,257.8 104.1,257.3C103.8,257.2 103.6,257.1 103.5,257C103.3,256.9 103.1,256.8 102.9,256.8C102.7,256.8 102.4,256.9 102.3,257.1C100.8,258.9 98.7,260 96.4,260.3C96,260.4 95.6,260.4 95.2,260.4C91.3,260.4 87.3,257.8 86.2,254.2L86.2,254.1L86.3,254C87.8,253.4 89.4,253 91.1,253.1L92.1,253.1C92.8,253.2 93.7,253.3 94.5,253.4C96.1,253.7 97.8,253.8 99.4,253.8C100.5,253.8 101.7,253.7 102.8,253.6C107.3,252.7 109,251.5 109.1,251.5C109.6,251.1 109.5,250.7 109.5,250.2M104.4,248.3C103.4,248.6 102.4,248.8 101.4,248.9C100.7,249 100,249 99.4,249C98.1,249 96.7,248.9 95.3,248.8L95.2,248.8C93.9,248.7 92.7,248.6 91.6,248.6C90.8,248.6 90.1,248.6 89.3,248.7C88,248.9 86.7,249.2 85.4,249.6L85.4,249.4C86,245 89.4,241.4 93.9,240.8C94.3,240.8 94.7,240.7 95.1,240.7C99.2,240.7 103.3,243.8 104.5,248L104.4,248.3Z" style="fill-rule:nonzero; fill:currentColor;"/>
        <path d="M179.7,237.6C179.7,237.2 179.4,236.9 179,236.9L175.3,236.9C174.9,236.9 174.6,237.2 174.6,237.6L174.6,264C174.6,264.4 174.9,264.7 175.3,264.7L179,264.7C179.4,264.7 179.7,264.4 179.7,264L179.7,237.6Z" style="fill-rule:nonzero; fill:currentColor;"/>
        <path d="M177.2,227.5C175.4,227.5 173.9,229 173.9,230.9C173.9,232.7 175.4,234.2 177.3,234.2C179.1,234.2 180.6,232.7 180.6,230.9C180.5,229 179,227.5 177.2,227.5" style="fill-rule:nonzero; fill:currentColor;"/>
        <path d="M127.9,265.4L128.6,265.4C132.3,265.4 136,263.9 138.6,261.3C141.3,258.5 142.8,254.7 142.7,250.8C142.9,242.7 136.4,236.1 128.4,235.9L128.1,235.9C121.5,235.9 115.7,240.4 114.1,246.9C113.7,249.1 113.5,251.4 113.5,253.6L113.5,274.3C113.5,274.7 113.8,275 114.2,275L117.9,275C118.3,275 118.6,274.7 118.6,274.3L118.6,261.3L118.8,261.5C121.2,263.8 124.5,265.2 127.9,265.4M128.1,241C133.3,241 137.5,245.3 137.5,250.9C137.5,256.4 133.6,260.6 128.4,260.6C125.9,260.6 123.4,259.7 121.6,258C119.7,256.2 118.7,253.7 118.8,251.1C118.7,245.5 122.9,241 128.1,241" style="fill-rule:nonzero; fill:currentColor;"/>
        <path d="M61.8,265.4L62.5,265.4C66.3,265.4 69.9,263.9 72.5,261.3C75.2,258.5 76.7,254.7 76.6,250.8C76.7,242.7 70.3,236.1 62.3,235.9L62,235.9C55.4,235.9 49.6,240.4 48,246.9C47.6,249.1 47.4,251.4 47.4,253.6L47.4,274.3C47.4,274.7 47.7,275 48.1,275L51.8,275C52.2,275 52.5,274.7 52.5,274.3L52.5,261.3L52.7,261.5C55.1,263.8 58.3,265.2 61.8,265.4M61.9,241C67.1,241 71.3,245.3 71.3,250.9C71.3,256.4 67.4,260.6 62.2,260.6C59.7,260.6 57.2,259.7 55.4,258C53.5,256.2 52.5,253.7 52.6,251.1C52.5,245.5 56.7,241 61.9,241" style="fill-rule:nonzero; fill:currentColor;"/>
        <path d="M146.3,260.7C149.5,263.6 153,265.3 157.5,265.3L157.6,265.3C165.4,265.3 168.9,261 168.9,256.7C168.9,250.9 163.4,249.3 161.7,248.9C161.2,248.8 160.6,248.7 160,248.6C158.6,248.3 157.2,248.1 155.9,247.7C155,247.5 152.1,246.5 152.1,244.3C152.1,241.9 154.8,240.6 157.3,240.6C159.5,240.5 161.7,241.3 163.5,242.7C163.7,242.9 164,243 164.2,243C164.4,243 164.7,242.9 164.9,242.7C165.8,242 166.6,241.3 167.4,240.5C167.6,240.4 167.7,240.1 167.7,239.9C167.7,239.6 167.5,239.4 167.3,239.2C164.5,236.9 160.9,235.7 157.3,235.8C151.4,235.8 147,239.5 147,244.6C147,248.6 150.3,251.4 156.2,252.5L159.9,253.2C162.3,253.7 163.7,255 163.6,256.8C163.5,258.6 161.4,260.4 157.8,260.4C155,260.4 152.2,259.3 150.2,257.3C150.1,257.1 149.9,257 149.6,257C149.4,257 149.2,257.1 149.1,257.2C148.9,257.4 146.4,259.3 146.1,259.6C146,259.7 145.9,259.9 145.9,260C146,260.4 146.1,260.6 146.3,260.7" style="fill-rule:nonzero; fill:currentColor;"/>
        <path d="M185,259.2C186.7,259.2 188.1,260.5 188.1,262.2C188.1,263.9 186.8,265.3 185.1,265.3C183.4,265.3 182,264 182,262.3L182,262.2C181.9,260.6 183.3,259.2 185,259.2M185,264.8C186.4,264.8 187.5,263.7 187.6,262.3C187.6,260.9 186.5,259.8 185.1,259.7C183.7,259.7 182.6,260.8 182.5,262.2C182.4,263.7 183.6,264.8 185,264.8M185.4,262.7C185.8,262.6 186.1,262.2 186.1,261.8C186.1,261.3 185.7,260.8 185.2,260.8L183.9,260.8L183.9,263.9L184.5,263.9L184.5,262.8L184.7,262.8L185.4,263.9L186.1,263.9L185.4,262.7ZM185.1,261.4C185.3,261.4 185.5,261.6 185.5,261.9C185.5,262.1 185.3,262.2 185.1,262.3L184.5,262.3L184.5,261.5L185.1,261.5L185.1,261.4Z" style="fill-rule:nonzero; fill:currentColor;"/>
        <path d="M181.8,81.2C183.5,86.6 184.4,92.3 184.3,98C184.3,116.1 175.6,133.1 161,143.7C136.5,161.7 100.8,161.8 51.6,177.3C80.3,211.7 131.4,216.3 165.8,187.6C197.3,161.2 204.2,115.6 181.8,81.2" style="fill-rule:nonzero; fill:currentColor;"/>
        <path d="M162.4,60.4C126.6,33.5 75.8,40.8 48.9,76.6C27.4,105.2 27.3,144.6 48.5,173.4C103.2,157.4 146,114.9 162.4,60.4" style="fill-rule:nonzero; fill:currentColor;"/>
    </g>
</svg>
