<?xml version="1.0" encoding="UTF-8" standalone="no"?>
<!DOCTYPE svg PUBLIC "-//W3C//DTD SVG 1.1//EN" "http://www.w3.org/Graphics/SVG/1.1/DTD/svg11.dtd">
<svg width="100%" height="100%" viewBox="0 0 456 365" version="1.1" xmlns="http://www.w3.org/2000/svg" xmlns:xlink="http://www.w3.org/1999/xlink" xml:space="preserve" xmlns:serif="http://www.serif.com/" style="fill-rule:evenodd;clip-rule:evenodd;stroke-linejoin:round;stroke-miterlimit:2;">
    <g>
        <g>
            <path d="M237.304,284.441C241.497,284.45 247.095,284.693 247.095,290.05L247.095,338.299C247.095,342.655 248.994,348.69 254.598,348.69C260.202,348.69 265.289,345.363 265.289,338.563L265.289,301.593C265.289,290.801 260.808,291.494 260.808,287.623C260.805,287.572 260.804,287.521 260.804,287.47C260.804,285.84 262.125,284.489 263.756,284.454L286.415,284.454C292.237,284.454 294.092,286.053 294.092,288.159L294.092,347.738C294.092,355.532 299.064,357.023 299.064,360.616C299.026,361.892 297.993,362.932 296.718,362.979L273.805,362.979C266.919,362.979 267.998,356.182 267.998,356.182L267.969,356.21C267.418,356.75 258.805,364.93 243.279,364.93C223.8,364.93 217.986,351.701 217.986,344.938L217.986,298.635C217.986,290.693 214.147,290.606 214.147,287.623C214.18,285.847 215.666,284.411 217.443,284.44L237.304,284.441Z" style="fill-rule:nonzero; fill:currentColor;"/>
            <path d="M332.016,267.384L332.02,267.591L332.02,284.448C335.732,284.453 340.93,284.463 342.663,284.464L343.021,284.464C345.372,284.464 346.478,287.161 346.478,289.74C346.478,292.244 345.437,294.505 343.226,294.635L343.021,294.641L332.02,294.641L332.02,341.046C332.02,344.479 333.708,347.654 337.177,347.654C339.927,347.654 339.812,346.685 341.902,346.685C344.483,346.685 344.626,350.287 342.244,354.365C338.474,360.814 332.762,364.707 322.961,364.707C310.449,364.707 303.685,356.062 303.55,342.711L303.548,342.301L303.548,295.006C294.946,294.954 295.805,288.642 299.126,286.209C302.461,283.767 322.995,268.368 326.212,265.919C328.703,264.025 331.892,264.005 332.016,267.384Z" style="fill-rule:nonzero; fill:currentColor;"/>
            <path d="M151.319,241.657C151.84,241.665 155.919,241.849 155.919,245.7C155.919,248.223 151.346,250.962 151.128,256.471L151.12,256.879L151.12,291.998C154.529,291.055 158.024,290.461 161.552,290.226C165.704,290.287 169.763,291.475 173.292,293.662L173.292,291.574C173.294,279.576 173.296,268.782 173.296,262.932L173.297,258.334C173.297,248.896 167.748,247.829 167.748,244.775C167.73,243.221 168.882,241.882 170.421,241.667L170.551,241.662L211.799,241.662C211.934,241.651 214.777,241.473 214.777,244.925C214.777,247.308 209.378,252.458 209.115,257.035L209.105,257.377L209.093,347.814C209.093,353.597 213.892,356.406 213.892,358.992C213.892,362.843 209.812,363.027 209.291,363.035L207.939,363.035C203.206,363.033 186.639,363.027 176.869,363.026L172.451,363.026C170.116,363.026 168.499,361.897 168.499,359.796C168.499,356.073 173.285,356.073 173.285,347.815L173.285,342.899C173.286,336.832 173.287,326.443 173.289,314.981L173.29,311.587C172.747,308.059 170.474,302.571 161.552,302.571C158.221,302.695 154.918,303.228 151.717,304.157L151.12,304.316L151.12,346.359C151.12,355.798 156.669,356.864 156.669,359.918C156.687,361.471 155.535,362.811 153.997,363.026L153.867,363.031L112.618,363.031C112.483,363.041 109.64,363.221 109.64,359.768C109.64,357.385 115.04,352.236 115.303,347.658L115.313,347.315L115.313,316.695C104.982,320.183 94.873,322.944 86.751,322.944C57.923,322.944 58.264,290.145 64.378,290.145C67.459,290.145 73.281,301.895 97.554,301.895C103.127,301.837 108.687,301.349 114.185,300.437L115.313,300.256L115.313,256.88C115.313,248.621 110.526,248.621 110.526,244.899C110.526,242.798 112.143,241.667 114.479,241.667L118.927,241.667C128.28,241.665 143.828,241.66 149.292,241.659L149.557,241.659L151.319,241.657Z" style="fill-rule:nonzero; fill:currentColor;"/>
        </g>
        <g>
            <path d="M271.91,150.727L333.49,150.727C336.285,150.727 338.585,153.027 338.585,155.822C338.585,155.822 338.585,155.822 338.585,155.822C338.585,158.367 331.739,167.875 330.682,169.507C328.897,172.261 298.119,219.753 298.119,219.753C320.006,219.753 326.425,234.512 343.78,234.512C351.53,234.512 351.683,232.331 355.619,232.331C355.71,232.322 355.801,232.317 355.892,232.317C357.364,232.317 358.575,233.528 358.575,234.999C358.575,235.022 358.574,235.044 358.574,235.066C358.574,238.212 347.197,251.644 331.405,251.646C312.611,251.648 303.097,229.14 279.711,229.136L265.923,229.136C263.518,229.136 261.538,227.157 261.538,224.751C261.538,223.894 261.79,223.056 262.261,222.34L300.807,163.794C300.927,163.609 300.991,163.394 300.991,163.174C300.991,162.548 300.476,162.034 299.851,162.034C299.841,162.034 299.832,162.034 299.823,162.034C290.319,162.21 286.425,163.603 283.183,166.119C276.701,171.149 275.412,181.511 271.055,181.511C268.619,181.511 267.69,179.948 267.69,177.21L267.69,156.154C267.69,152.616 268.648,150.727 271.91,150.727Z" style="fill-rule:nonzero; fill:currentColor;"/>
            <path d="M157.585,150.752L157.74,150.752L182.353,150.752C185.322,150.752 186.613,152.545 186.675,156.305L186.677,156.59L186.677,214.098C186.677,217.975 187.745,220.196 188.947,221.677L189.071,221.828L227.28,163.794C227.4,163.61 227.463,163.395 227.463,163.175C227.463,162.549 226.948,162.034 226.322,162.034C226.314,162.034 226.305,162.034 226.296,162.034C216.793,162.21 212.898,163.602 209.656,166.119C203.175,171.149 201.885,181.511 197.528,181.511C195.166,181.511 194.222,180.041 194.167,177.456L194.164,177.21L194.164,156.154C194.164,152.703 195.075,150.82 198.149,150.73L198.383,150.726L259.963,150.726C259.963,150.726 259.964,150.726 259.964,150.726C262.758,150.726 265.058,153.026 265.058,155.821C265.058,155.821 265.058,155.821 265.058,155.821C265.058,158.367 258.213,167.874 257.155,169.506C255.424,172.179 226.413,216.944 224.674,219.627L224.592,219.753C246.479,219.753 252.899,234.512 270.254,234.512C278.004,234.512 278.155,232.331 282.092,232.331C282.183,232.322 282.274,232.317 282.366,232.317C283.838,232.317 285.049,233.528 285.049,235C285.049,235.022 285.049,235.043 285.048,235.065C285.048,238.212 273.67,251.643 257.878,251.645C239.276,251.647 229.765,229.597 206.896,229.143L206.184,229.136L192.396,229.136C191.805,229.128 191.222,228.997 190.683,228.752C190.25,228.982 189.772,229.112 189.282,229.135L154.93,229.135C154.93,229.135 152.059,228.159 152.059,225.643C152.059,220.596 157.66,222.048 157.66,212.952L157.66,211.81C157.655,200.463 157.576,173.55 157.569,166.553L157.569,165.761C157.569,157.88 152.628,156.504 152.628,153.305C152.627,150.354 155.348,150.733 157.585,150.752Z" style="fill-rule:nonzero; fill:currentColor;"/>
            <path d="M117.226,130.23C144.892,130.23 151.621,152.802 151.621,168.799C151.621,197.057 131.747,210.769 115.354,210.769C106.561,210.769 97.402,206.05 97.402,201.305C97.481,200.437 98.025,199.678 98.821,199.323C101.577,198.083 116.653,193.313 116.367,169.259C116.14,150.114 109.4,141.316 102.489,141.316C96.897,141.316 94.792,144.324 94.792,153.113L94.791,153.99C94.774,164.995 94.488,225.356 94.488,235.96C94.488,240.62 100.255,245.972 100.16,248.411C100.16,248.424 100.16,248.438 100.16,248.452C100.16,250.077 98.827,251.417 97.201,251.424L55.934,251.424C54.38,251.407 53.115,250.114 53.131,248.56C53.131,245.507 58.68,244.44 58.68,235.002L58.68,145.523C58.68,139.166 53.882,137.332 53.882,134.344C53.882,131.944 55.112,130.302 57.347,130.302L59.835,130.302C76.877,130.295 117.226,130.23 117.226,130.23Z" style="fill-rule:nonzero; fill:currentColor;"/>
            <path d="M405.522,206.114L405.522,169.284L405.517,168.878C405.22,155.546 390.266,149.317 372.666,149.317C355.518,149.317 337.674,154.183 337.674,167.213C337.674,167.234 337.674,167.255 337.674,167.276C337.674,172.854 342.263,177.444 347.841,177.444C347.862,177.444 347.883,177.444 347.904,177.444C354.062,177.444 358.06,172.092 359.184,168.398C361.125,162.02 365.378,160.165 368.585,160.165C373.425,160.204 377.414,164.132 377.528,168.971C377.528,177.913 367.97,179.802 355.632,182.613C337.52,186.74 331.081,194.994 331.081,207.976C331.081,220.099 341.782,230.218 357.706,230.218C365.064,230.297 372.219,227.781 377.908,223.114C378.653,222.465 379.797,222.533 380.461,223.266C384.484,227.692 390.233,230.168 396.214,230.051C409.015,230.051 413.341,222.354 413.341,219.373C413.341,214.865 405.522,221.819 405.522,206.114ZM378.424,205.474L378.42,205.749C378.295,210.61 374.203,214.512 369.342,214.404C364.51,214.299 360.586,210.307 360.564,205.474C360.564,195.251 373.785,188.803 375.306,188.323C377.555,187.613 378.424,187.083 378.424,188.323L378.424,205.474Z" style="fill-rule:nonzero; fill:currentColor;"/>
            <ellipse cx="170.697" cy="133.601" rx="17.307" ry="13.821" style="fill:currentColor;" />
        </g>
        <path d="M455.63,110.574L455.629,104.749L340.467,55.099L318.111,0.002L137.519,0.002L115.163,55.099L0.001,104.749L-0,110.574L455.63,110.574Z" style="fill-rule:nonzero; fill:currentColor;"/>
    </g>
</svg>
