<?xml version="1.0" encoding="UTF-8" standalone="no"?>
<!DOCTYPE svg PUBLIC "-//W3C//DTD SVG 1.1//EN" "http://www.w3.org/Graphics/SVG/1.1/DTD/svg11.dtd">
<svg width="100%" height="100%" viewBox="0 0 199 49" version="1.1" xmlns="http://www.w3.org/2000/svg" xmlns:xlink="http://www.w3.org/1999/xlink" xml:space="preserve" xmlns:serif="http://www.serif.com/" style="fill-rule:evenodd;clip-rule:evenodd;stroke-linejoin:round;stroke-miterlimit:2;">
    <g transform="matrix(1,0,0,1,-0.6,-0.6)">
        <path d="M48.3,6.4C45.3,4.3 41.7,3.2 38.1,3C35.6,2.9 33.1,3.2 30.6,3.9C26,5.1 21.6,7.3 17.6,9.9C15.2,11.3 13,12.9 11.4,15.1C10.5,16.2 9.9,17.7 9.8,19.2C9.7,20.2 9.9,21.1 10.5,21.8C11.2,22.8 12.5,23.3 13.7,23.3C15.7,23.3 17.6,22.4 19.3,21.6C22.2,20.1 24.7,18.1 27.5,16.6C28.5,16.1 29.5,15.6 30.5,15.4C31.2,15.3 32.1,15.4 32.7,15.8C33.3,16 33.8,16.8 33.8,17.5C33.8,18.5 33.3,19.4 32.7,20.1C31.1,21.8 29.1,23.1 27.1,24.3C23.7,26.3 20.2,28.2 16.4,29.2C14.5,29.7 12.4,29.9 10.4,29.6C8.7,29.3 7,28.3 5.8,27C4.6,25.4 4.2,23.3 4.3,21.3C4.7,17.9 6.4,14.9 8.5,12.4C11.2,9.3 14.5,6.8 18,4.7C19.2,3.8 20.6,3.2 22,2.5C21.8,1.9 21.4,1.3 21.1,0.6C20.5,0.8 19.9,1.2 19.2,1.6L19.3,1.5C16,3.2 12.7,5.5 9.7,8.1C6.6,10.7 4,14 2.2,17.6C1.2,19.7 0.7,22.1 0.6,24.5C0.6,26.5 1.1,28.6 2.2,30.4C3.4,32.5 5.7,34 8.4,34.6C11.1,35.2 14,35.1 16.8,34.4C19.2,33.8 21.7,32.9 23.9,31.9C26.5,30.8 28.9,29.2 31.4,27.8C33.1,26.7 34.9,25.4 36.4,23.9C37.6,22.7 38.6,21.3 39.3,19.7C39.7,18.7 39.7,17.6 39.5,16.5C39.1,14.6 37.8,13 36,12.3C33.9,11.4 31.4,11.6 29.3,12.3C24.9,13.8 21.4,16.9 17.3,18.9C16.4,19.3 15.4,19.6 14.6,19.3C14.1,19.2 13.7,18.6 13.7,18.1C13.7,17.4 14.1,16.6 14.6,16C15.7,14.6 17.1,13.6 18.6,12.8C20.1,11.8 21.6,10.9 23.2,10.1C26.6,8.4 30.2,6.9 34.1,6.6C36.7,6.4 39.5,6.8 41.8,8.1C44.7,9.6 46.8,12.2 47.7,15.2C48.1,16.7 48.1,18.1 47.9,19.6C47.4,23.6 45.2,27.3 42.4,30.2C40.8,31.9 39,33.4 37.2,34.9C35.1,36.5 32.8,38.1 30.5,39.4C28.4,40.5 26.3,41.4 24.1,42.4C24.6,44.6 25.3,46.9 25.8,49.1C26.5,48.9 27.4,48.5 28.2,48.1C30.8,47 33.4,45.7 35.8,44.2C38.2,42.7 40.5,41.1 42.7,39.2C44.3,37.8 45.9,36.3 47.4,34.7C49.3,32.7 51,30.5 52.3,28C53.9,24.8 55,21.1 54.7,17.5C54.4,12.9 51.8,8.9 48.3,6.4ZM109.6,17.9C107.6,22.6 105.4,27.5 103.4,32.3L105.6,32.3C106.1,31.2 106.5,29.9 107,28.8L113.7,28.8C114.2,29.9 114.7,31.2 115.2,32.3C115.9,32.4 116.7,32.3 117.4,32.3C115.4,27.4 113.3,22.7 111.3,17.9L109.6,17.9ZM107.7,27C108.6,24.9 109.4,22.6 110.4,20.5C111.3,22.6 112.1,24.9 113,27L107.7,27ZM70.4,24.2C69.4,23.8 68.4,23.6 67.8,22.8C67.2,21.9 67.4,20.6 68.3,19.9C69.7,19 71.8,19.3 72.8,20.6C73.4,20.1 73.9,19.6 74.4,19.1C73.8,18.5 73,17.9 72.2,17.7C70.6,17.3 68.8,17.3 67.3,18.2L67.4,18.4C66.4,19 65.7,20 65.5,21.3C65.5,22.3 65.6,23.4 66.2,24.2C66.9,25.2 68.1,25.7 69.2,26.1C70.2,26.3 71.3,26.6 72.1,27.3C72.8,28.2 72.6,29.5 71.7,30.2C70.2,31.4 67.7,30.9 66.6,29.3C66.1,29.7 65.5,30.2 65,30.7C65.9,31.9 67.4,32.6 68.9,32.7C70.1,32.8 71.4,32.6 72.5,32C73.6,31.4 74.4,30.3 74.5,29C74.6,27.9 74.5,26.6 73.6,25.8C72.8,24.8 71.5,24.5 70.4,24.2ZM86.9,30.3C86.8,28.8 86.9,27.3 86.9,25.8L93.6,25.8L93.6,24L86.9,24L86.9,19.8L94.3,19.8L94.3,17.9L84.9,17.9L84.9,32.3L94.5,32.3L94.5,30.4L88.5,30.4C88,30.3 87.4,30.5 86.9,30.3ZM134,26.2L137.2,26.2L137.2,30.2C135.8,30.8 134.3,30.9 132.8,30.8C131.3,30.6 130.1,29.7 129.2,28.4C127.7,26.2 128,22.7 130.1,20.8C132.1,18.8 135.6,19.1 137.6,20.9C138.1,20.4 138.5,19.9 139,19.4C138.1,18.4 136.9,17.9 135.5,17.7C133.8,17.3 131.8,17.5 130.1,18.3L130.2,18.4C128.1,19.4 126.7,21.4 126.3,23.6C125.9,25.6 126.3,27.8 127.5,29.6C128.6,31.3 130.6,32.5 132.7,32.6C134.7,32.7 136.7,32.5 138.6,31.6C138.8,31.5 139.1,31.4 139.1,31.1L139.1,24.2L134,24.2L134,26.2ZM168.8,19.7L173.4,19.7L173.4,32.2L175.4,32.2L175.4,19.7L180,19.7L180,17.8L168.8,17.8L168.8,19.7ZM191.8,30.4L191.8,25.8L198.7,25.8L198.7,24L191.8,24L191.8,19.8L199,19.8L199,17.9L189.8,17.9L189.8,32.3L199.4,32.3L199.4,30.4L191.8,30.4ZM155.1,17.9C153,22.6 150.9,27.5 148.7,32.3C149.4,32.3 150.2,32.4 150.9,32.3C151.4,31.2 151.8,29.9 152.3,28.8L159,28.8C159.5,29.9 159.9,31.2 160.5,32.3C161.2,32.4 162,32.3 162.7,32.3C160.7,27.4 158.6,22.7 156.6,17.9L155.1,17.9ZM153.1,27C154,24.9 154.8,22.6 155.8,20.5C156.7,22.6 157.5,24.9 158.4,27L153.1,27Z" style="fill-rule:nonzero; fill:currentColor;"/>
    </g>
</svg>
