<svg width="100%" height="100%" viewBox="0 0 1523 1454" version="1.1" xmlns="http://www.w3.org/2000/svg" xmlns:xlink="http://www.w3.org/1999/xlink" xml:space="preserve" style="fill-rule:evenodd;clip-rule:evenodd;stroke-linejoin:round;stroke-miterlimit:1.41421;">
    <g id="Simple--No-Wrinkle-" transform="matrix(1,0,0,1,-134,89)">
        <!-- HAIR -->
        <g transform="matrix(1,0,0,1,4,-1.13687e-13)">
            <path d="M214,868L195,784L247,477L214,868Z" style="fill:rgb(25,6,1);"></path>
        </g>
        <g transform="matrix(1,0,0,1,4,-1.13687e-13)">
            <path d="M247,477L340,226L387,437L247,477Z" style="fill:rgb(15,11,12);"></path>
        </g>
        <g transform="matrix(1,0,0,1,4,-1.13687e-13)">
            <path d="M214,868L387,437L247,477L214,868Z" style="fill:rgb(12,0,0);"></path>
        </g>
        <g transform="matrix(1,0,0,1,4,-1.13687e-13)">
            <path d="M340,226L387,437L434,294L340,226Z" style="fill:rgb(22,13,11);"></path>
        </g>
        <g transform="matrix(1,0,0,1,4,-1.13687e-13)">
            <path d="M421,88.959L736,247L592,310L421,88.959Z" style="fill:rgb(36,20,9);"></path>
        </g>
        <g transform="matrix(1,0,0,1,4,-1.13687e-13)">
            <path d="M340,226L421,88.959L434,294L340,226Z" style="fill:rgb(26,17,5);"></path>
        </g>
        <g transform="matrix(1,0,0,1,4,-1.13687e-13)">
            <path d="M592,310L434,294L421,88.959L592,310Z" style="fill:rgb(27,12,2);"></path>
        </g>
        <g transform="matrix(1,0,0,1,4,-1.13687e-13)">
            <path d="M434,294L387,437L592,310L434,294Z" style="fill:rgb(26,7,0);"></path>
        </g>
        <g transform="matrix(1,0,0,1,4,-1.13687e-13)">
            <path d="M543,-22L712,0L421,88.959L543,-22Z" style="fill:rgb(11,0,0);"></path>
        </g>
        <g transform="matrix(1,0,0,1,4,-1.13687e-13)">
            <path d="M712,0L421,88.959L736,247L712,0Z" style="fill:rgb(32,16,13);"></path>
        </g>
        <g transform="matrix(1,0,0,1,4,-1.13687e-13)">
            <path d="M1384,114.868L1287,-89L1328,248L1384,114.868Z" style="fill:rgb(201,164,128);"></path>
        </g>
        <g transform="matrix(1,0,0,1,4,-1.13687e-13)">
            <path d="M1287,248L1328,248L1287,-89L1287,248Z" style="fill:rgb(173,138,105);"></path>
        </g>
        <g transform="matrix(1,0,0,1,4,-1.13687e-13)">
            <path d="M1370,17L1287,-89L1384,115L1370,17Z" style="fill:rgb(117,91,75);"></path>
        </g>
        <g transform="matrix(1,0,0,1,4,-1.13687e-13)">
            <path d="M1380,208L1328,248L1384,115L1380,208Z" style="fill:rgb(133,103,87);"></path>
        </g>
        <g transform="matrix(1,0,0,1,4,-1.13687e-13)">
            <path d="M1024,-54L1287,248L1287,-89L1024,-54Z" style="fill:rgb(152,117,88);"></path>
        </g>
        <g transform="matrix(1,0,0,1,4,-1.13687e-13)">
            <path d="M831,230L1063.5,230L887,114.868L831,230Z" style="fill:rgb(106,74,48);"></path>
        </g>
        <g transform="matrix(1,0,0,1,4,-1.13687e-13)">
            <path d="M736,247L712,0L831,230L736,247Z" style="fill:rgb(60,38,32);"></path>
        </g>
        <g transform="matrix(1,0,0,1,4,-1.13687e-13)">
            <path d="M712,0L1024,-54L887,115L712,0Z" style="fill:rgb(52,37,19);"></path>
        </g>
        <g transform="matrix(1,0,0,1,4,-1.13687e-13)">
            <path d="M1063.5,230L1169,230L1024,-54L1063.5,230Z" style="fill:rgb(63,44,27);"></path>
        </g>
        <g transform="matrix(1,0,0,1,4,-1.13687e-13)">
            <path d="M1063.5,230L887,114.868L1024,-54L1063.5,230Z" style="fill:rgb(93,65,37);"></path>
        </g>
        <g transform="matrix(1,0,0,1,4,-1.13687e-13)">
            <path d="M712,0L887,114.868L831,230L712,0Z" style="fill:rgb(58,43,31);"></path>
        </g>
        <g transform="matrix(1,0,0,1,4,-1.13687e-13)">
            <path d="M1287,248L1024,-54L1169,230L1287,248Z" style="fill:rgb(147,102,70);"></path>
        </g>
        <!-- FOREHEAD -->
        <g transform="matrix(1,0,0,1,4,-1.13687e-13)">
            <path d="M832,452L685,298L679,443L832,452Z" style="fill:rgb(181,134,104);"></path>
        </g>
        <g transform="matrix(1,0,0,1,4,-1.13687e-13)">
            <path d="M736,247L685,298L832,452L736,247Z" style="fill:rgb(179,139,107);"></path>
        </g>
        <g transform="matrix(1,0,0,1,4,-1.13687e-13)">
            <path d="M831,230L832,452L736,247L831,230Z" style="fill:rgb(169,134,102);"></path>
        </g>
        <g transform="matrix(1,0,0,1,4,-1.13687e-13)">
            <path d="M957,435L1063.5,230L831,230L957,435Z" style="fill:rgb(199,162,133);"></path>
        </g>
        <g transform="matrix(1,0,0,1,4,-1.13687e-13)">
            <path d="M1078,459L957,435L1063.5,230L1078,459Z" style="fill:rgb(235,211,180);"></path>
        </g>
        <g>
            <path d="M990,682.5L961,435L1082,459L990,682.5Z" style="fill:rgb(240,205,162);"></path>
        </g>
        <g transform="matrix(1,0,0,1,4,-1.13687e-13)">
            <path d="M1169,230L1078,459L1063.5,230L1169,230Z" style="fill:rgb(218,184,146);"></path>
        </g>
        <g transform="matrix(1,0,0,1,4,-1.13687e-13)">
            <path d="M1169,230L1078,459L1205,468.125L1169,230Z" style="fill:rgb(222,191,160);"></path>
        </g>
        <g transform="matrix(1,0,0,1,4,-1.13687e-13)">
            <path d="M1287,248L1169,230L1205,468.125L1287,248Z" style="fill:rgb(235,207,177);"></path>
        </g>
        <g transform="matrix(1,0,0,1,4,-1.13687e-13)">
            <path d="M1116,865.923L1117,910L1144,893L1116,865.923Z" style="fill:rgb(207,137,112);"></path>
        </g>
        <g transform="matrix(1,0,0,1,4,-1.13687e-13)">
            <path d="M1187,923L1217,920L1232,892L1187,923Z" style="fill:rgb(204,178,163);"></path>
        </g>
        <g transform="matrix(1,0,0,1,4,-1.13687e-13)">
            <path d="M832,452L662,667L823,648L832,452Z" style="fill:rgb(186,150,125);"></path>
        </g>
        <g transform="matrix(1,0,0,1,4,-1.13687e-13)">
            <path d="M592,310L662,667L679,443L592,310Z" style="fill:rgb(157,111,74);"></path>
        </g>
        <g transform="matrix(1,0,0,1,4,-1.13687e-13)">
            <path d="M832,452L679,443L662,667L832,452Z" style="fill:rgb(173,126,95);"></path>
        </g>
        <g transform="matrix(1,0,0,1,4,-1.13687e-13)">
            <path d="M387,437L521,763L592,310L387,437Z" style="fill:rgb(101,73,54);"></path>
        </g>
        <g transform="matrix(1,0,0,1,4,-1.13687e-13)">
            <path d="M340,868L521,763L387,437L340,868Z" style="fill:rgb(65,44,27);"></path>
        </g>
        <g transform="matrix(1,0,0,1,4,-1.13687e-13)">
            <path d="M486,874L406,874L521,763L486,874Z" style="fill:rgb(58,37,24);"></path>
        </g>
        <g transform="matrix(1,0,0,1,4,-1.13687e-13)">
            <path d="M340,868L521,763L406,874L340,868Z" style="fill:rgb(53,31,22);"></path>
        </g>
        <g transform="matrix(1,0,0,1,4,-1.13687e-13)">
            <path d="M679,443L592,310L685,298L679,443Z" style="fill:rgb(158,121,94);"></path>
        </g>
        <g transform="matrix(1,0,0,1,4,-1.13687e-13)">
            <path d="M1287,248L1437,466L1328,248L1287,248Z" style="fill:none;"></path>
        </g>
        <g transform="matrix(1,0,0,1,4,-1.13687e-13)">
            <path d="M1205,468.125L1437,466L1287,248L1205,468.125Z" style="fill:rgb(255,233,204);"></path>
        </g>
        <g transform="matrix(1,0,0,1,4,-1.13687e-13)">
            <path d="M1437,466L1386,595L1205,468.125L1437,466Z" style="fill:rgb(249,219,187);"></path>
        </g>
        <g transform="matrix(1,0,0,1,4,-1.13687e-13)">
            <path d="M1463,579L1437,467L1385,595L1463,579Z" style="fill:rgb(255,253,229);"></path>
        </g>
        <g>
            <path d="M961,435L836,452L835,230L961,435Z" style="fill:rgb(196,155,117);"></path>
        </g>
        <g transform="matrix(1,0,0,1,4,-1.13687e-13)">
            <path d="M685,298L592,310L736,247L685,298Z" style="fill:rgb(28,12,0);"></path>
        </g>
        <g transform="matrix(1,0,0,1,4,-1.13687e-13)">
            <path d="M521,763L662,667L592,310L521,763Z" style="fill:rgb(146,97,70);"></path>
        </g>
        <g transform="matrix(1,0,0,1,4,-1.13687e-13)">
            <path d="M1286,728L1224,682.5L1205,468.125L1286,728Z" style="fill:rgb(241,210,176);"></path>
        </g>
        <g transform="matrix(1,0,0,1,4,-1.13687e-13)">
            <path d="M1385.5,595L1286,728L1205,468.125L1385.5,595Z" style="fill:rgb(239,202,163);"></path>
        </g>
        <g transform="matrix(1,0,0,1,4,-1.13687e-13)">
            <path d="M1314,748.5L1385.5,595L1286,728L1314,748.5Z" style="fill:rgb(251,220,186);"></path>
        </g>
        <g transform="matrix(1,0,0,1,4,-1.13687e-13)">
            <path d="M1437,795L1314,748.5L1385.5,595L1437,795Z" style="fill:rgb(255,229,199);"></path>
        </g>
        <g transform="matrix(1,0,0,1,4,-1.13687e-13)">
            <path d="M1205,468.125L1078,459L1133,682.5L1205,468.125Z" style="fill:rgb(243,204,165);"></path>
        </g>
        <g transform="matrix(1,0,0,1,4,-1.13687e-13)">
            <path d="M832,452L823,648L883,648L832,452Z" style="fill:rgb(205,161,137);"></path>
        </g>
        <g transform="matrix(1,0,0,1,4,-1.13687e-13)">
            <path d="M340,868L214,868L387,437L340,868Z" style="fill:rgb(31,19,6);"></path>
        </g>
        <g transform="matrix(1,0,0,1,4,-1.13687e-13)">
            <path d="M1155,682.5L1205,468.125L1224,682.5L1155,682.5Z" style="fill:rgb(230,189,153);"></path>
        </g>
        <g transform="matrix(1,0,0,1,4,-1.13687e-13)">
            <path d="M1078,459L986,682.5L1133,682.5L1078,459Z" style="fill:rgb(233,193,155);"></path>
        </g>
        <g transform="matrix(1,0,0,1,4,-1.13687e-13)">
            <path d="M832,452L957,435L986,682.5L832,452Z" style="fill:rgb(228,187,146);"></path>
        </g>
        <g transform="matrix(1,0,0,1,4,-1.13687e-13)">
            <path d="M883,648L986,682.5L832,452L883,648Z" style="fill:rgb(222,181,149);"></path>
        </g>
        <g transform="matrix(1,0,0,1,4,-1.13687e-13)">
            <path d="M1133,682.5L1155,682.5L1205,468L1133,682.5Z" style="fill:rgb(226,190,158);"></path>
        </g>
        <!-- RIGHT EYE -->
        <g transform="matrix(1,0,0,1,4,-1.13687e-13)">
            <path d="M1178,950L1217,920L1187,923L1178,950Z" style="fill:rgb(211,187,176);"></path>
        </g>
        <g transform="matrix(1,0,0,1,4,-1.13687e-13)">
            <path d="M1220,950L1217,920L1178,950L1220,950Z" style="fill:rgb(196,174,157);"></path>
        </g>
        <g transform="matrix(1,0,0,1,4,-1.13687e-13)">
            <path d="M1187,977L1220,950L1178,950L1187,977Z" style="fill:rgb(182,155,140);"></path>
        </g>
        <g transform="matrix(1,0,0,1,4,-1.13687e-13)">
            <path d="M1232,974L1220,950L1187,977L1232,974Z" style="fill:rgb(198,176,159);"></path>
        </g>
        <g transform="matrix(1,0,0,1,4,-1.13687e-13)">
            <path d="M1263,985L1187,977L1232,974L1263,985Z" style="fill:rgb(190,164,154);"></path>
        </g>
        <g transform="matrix(1,0,0,1,4,-1.13687e-13)">
            <path d="M507,849L582,827L610,925L507,849Z" style="fill:rgb(165,123,100);"></path>
        </g>
        <!-- LEFT EYE -->
        <g transform="matrix(1,0,0,1,4,-1.13687e-13)">
            <path d="M486,874L521,763L503,838L486,874Z" style="fill:rgb(44,22,13);"></path>
        </g>
        <g transform="matrix(1,0,0,1,4,-1.13687e-13)">
            <path d="M546,795L503,838L521,763L546,795Z" style="fill:rgb(56,33,25);"></path>
        </g>
        <g transform="matrix(1,0,0,1,4,-1.13687e-13)">
            <path d="M748,678L662,667L665,708L748,678Z" style="fill:rgb(105,65,42);"></path>
        </g>
        <g transform="matrix(1,0,0,1,4,-1.13687e-13)">
            <path d="M823,648L748,678L662,667L823,648Z" style="fill:rgb(145,110,86);"></path>
        </g>
        <g transform="matrix(1,0,0,1,4,-1.13687e-13)">
            <path d="M748,678L823,648L829,708L748,678Z" style="fill:rgb(90,52,32);"></path>
        </g>
        <g transform="matrix(1,0,0,1,4,-1.13687e-13)">
            <path d="M751,720L829,708L748,678L751,720Z" style="fill:rgb(104,63,40);"></path>
        </g>
        <g transform="matrix(1,0,0,1,4,-1.13687e-13)">
            <path d="M926,708L883,648L823,648L926,708Z" style="fill:rgb(189,136,109);"></path>
        </g>
        <g transform="matrix(1,0,0,1,4,-1.13687e-13)">
            <path d="M829,708L926,708L823,648L829,708Z" style="fill:rgb(161,101,67);"></path>
        </g>
        <g transform="matrix(1,0,0,1,4,-1.13687e-13)">
            <path d="M751,720L829,708L789,810L751,720Z" style="fill:rgb(219,168,132);"></path>
        </g>
        <g transform="matrix(1,0,0,1,4,-1.13687e-13)">
            <path d="M665,708L748,678L751,720L665,708Z" style="fill:rgb(80,42,24);"></path>
        </g>
        <g transform="matrix(1,0,0,1,4,-1.13687e-13)">
            <path d="M665,708L624,763L751,720L665,708Z" style="fill:rgb(144,88,67);"></path>
        </g>
        <g transform="matrix(1,0,0,1,4,-1.13687e-13)">
            <path d="M693,806L624,763L751,720L693,806Z" style="fill:rgb(186,131,97);"></path>
        </g>
        <g transform="matrix(1,0,0,1,4,-1.13687e-13)">
            <path d="M569,754L665,708L624,763L569,754Z" style="fill:rgb(96,55,36);"></path>
        </g>
        <g transform="matrix(1,0,0,1,4,-1.13687e-13)">
            <path d="M546,795L624,763C624,763 567.766,753.858 569,754C570.234,754.142 546,795 546,795Z" style="fill:rgb(103,71,51);"></path>
        </g>
        <g transform="matrix(1,0,0,1,4,-1.13687e-13)">
            <path d="M521,763L570,754L662,667L521,763Z" style="fill:rgb(69,47,33);"></path>
        </g>
        <g transform="matrix(1,0,0,1,4,-1.13687e-13)">
            <path d="M546,795L521,763L570,754L546,795Z" style="fill:rgb(76,51,47);"></path>
        </g>
        <g transform="matrix(1,0,0,1,4,-1.13687e-13)">
            <path d="M580,816L503,838L546,795L580,816Z" style="fill:rgb(102,58,51);"></path>
        </g>
        <g transform="matrix(1,0,0,1,4,-1.13687e-13)">
            <path d="M624,763L580,816L546,795L624,763Z" style="fill:rgb(122,82,59);"></path>
        </g>
        <g transform="matrix(1,0,0,1,4,-1.13687e-13)">
            <path d="M665,708L570,754L662,667L665,708Z" style="fill:rgb(89,51,39);"></path>
        </g>
        <g transform="matrix(1,0,0,1,4,-1.13687e-13)">
            <path d="M926,708L986,682.5L883,648L926,708Z" style="fill:rgb(206,151,124);"></path>
        </g>
        <g transform="matrix(1,0,0,1,4,-1.13687e-13)">
            <path d="M906,832L829,708L926,708L906,832Z" style="fill:rgb(194,129,97);"></path>
        </g>
        <g transform="matrix(1,0,0,1,4,-1.13687e-13)">
            <path d="M979.5,863L926,708L906,832L979.5,863Z" style="fill:rgb(194,128,94);"></path>
        </g>
        <g transform="matrix(1,0,0,1,4,-1.13687e-13)">
            <path d="M986,682.5L979.5,863L926,708" style="fill:rgb(230,169,141);"></path>
        </g>
        <g transform="matrix(1,0,0,1,4,-1.13687e-13)">
            <path d="M969,1008L978,905L957,1005L969,1008Z" style="fill:rgb(28,15,20);"></path>
        </g>
        <g transform="matrix(1,0,0,1,4,-1.13687e-13)">
            <path d="M978,905L969,1008L985,913L978,905Z" style="fill:rgb(75,56,48);"></path>
        </g>
        <g transform="matrix(1,0,0,1,4,-1.13687e-13)">
            <path d="M1000,910L985,913L978,905L1000,910Z" style="fill:rgb(35,18,21);"></path>
        </g>
        <g transform="matrix(1,0,0,1,4,-1.13687e-13)">
            <path d="M969,1008L1000,910L985,913L969,1008Z" style="fill:rgb(45,11,13);"></path>
        </g>
        <g transform="matrix(1,0,0,1,4,-1.13687e-13)">
            <path d="M994,1009L969,1008L1000,910L994,1009Z" style="fill:rgb(61,29,35);"></path>
        </g>
        <g transform="matrix(1,0,0,1,4,-1.13687e-13)">
            <path d="M944,1046L969,1008L957,1005L944,1046Z" style="fill:rgb(77,55,54);"></path>
        </g>
        <g transform="matrix(1,0,0,1,4,-1.13687e-13)">
            <path d="M972,1056L969,1008L944,1046L972,1056Z" style="fill:rgb(112,79,77);"></path>
        </g>
        <g transform="matrix(1,0,0,1,4,-1.13687e-13)">
            <path d="M994,1009L969,1008L972,1056L994,1009Z" style="fill:rgb(99,65,64);"></path>
        </g>
        <g transform="matrix(1,0,0,1,4,-1.13687e-13)">
            <path d="M998,1164L972,1056L994,1009L998,1164Z" style="fill:rgb(145,108,101);"></path>
        </g>
        <g transform="matrix(1,0,0,1,4,-1.13687e-13)">
            <path d="M952,1120L972,1056L998,1164L952,1120Z" style="fill:rgb(139,104,94);"></path>
        </g>
        <g transform="matrix(1,0,0,1,4,-1.13687e-13)">
            <path d="M952,1227L952,1120L998,1164L952,1227Z" style="fill:rgb(105,65,55);"></path>
        </g>
        <g transform="matrix(1,0,0,1,4,-1.13687e-13)">
            <path d="M916,1078L952,1120L944,1046L916,1078Z" style="fill:rgb(136,102,97);"></path>
        </g>
        <g transform="matrix(1,0,0,1,4,-1.13687e-13)">
            <path d="M972,1056L952,1120L944,1046L972,1056Z" style="fill:rgb(142,107,101);"></path>
        </g>
        <g transform="matrix(1,0,0,1,4,-1.13687e-13)">
            <path d="M872,1169L807,1103L916,1078L872,1169Z" style="fill:rgb(157,116,105);"></path>
        </g>
        <g transform="matrix(1,0,0,1,4,-1.13687e-13)">
            <path d="M952,1227L952,1120L872,1169L952,1227Z" style="fill:rgb(148,93,84);"></path>
        </g>
        <g transform="matrix(1,0,0,1,4,-1.13687e-13)">
            <path d="M927,1277L872,1169L952,1227L927,1277Z" style="fill:rgb(143,92,80);"></path>
        </g>
        <g transform="matrix(1,0,0,1,4,-1.13687e-13)">
            <path d="M515,1170L690.5,1188L639,1094L515,1170Z" style="fill:rgb(182,127,100);"></path>
        </g>
        <g transform="matrix(1,0,0,1,4,-1.13687e-13)">
            <path d="M742,1103L639,1094L690.5,1188L742,1103Z" style="fill:rgb(179,130,112);"></path>
        </g>
        <g transform="matrix(1,0,0,1,4,-1.13687e-13)">
            <path d="M807,1188L690.5,1188L742,1103L807,1188Z" style="fill:rgb(210,161,134);"></path>
        </g>
        <g transform="matrix(1,0,0,1,4,-1.13687e-13)">
            <path d="M807,1103L742,1103L807,1188L807,1103Z" style="fill:rgb(191,154,134);"></path>
        </g>
        <g transform="matrix(1,0,0,1,4,-1.13687e-13)">
            <path d="M872,1169L807,1188L807,1103L872,1169Z" style="fill:rgb(186,143,123);"></path>
        </g>
        <g transform="matrix(1,0,0,1,4,-1.13687e-13)">
            <path d="M500,1042L515,1170L639,1094L500,1042Z" style="fill:rgb(137,94,62);"></path>
        </g>
        <g transform="matrix(1,0,0,1,4,-1.13687e-13)">
            <path d="M807,1188L927,1277L872,1169L807,1188Z" style="fill:rgb(207,146,121);"></path>
        </g>
        <g transform="matrix(1,0,0,1,4,-1.13687e-13)">
            <path d="M740,1365L927,1277L807,1188L740,1365Z" style="fill:rgb(227,174,147);"></path>
        </g>
        <g transform="matrix(1,0,0,1,4,-1.13687e-13)">
            <path d="M927,1337L740,1365L927,1277L927,1337Z" style="fill:rgb(230,170,139);"></path>
        </g>
        <g transform="matrix(1,0,0,1,4,-1.13687e-13)">
            <path d="M941,1365L740,1365L927,1337L941,1365Z" style="fill:rgb(198,130,109);"></path>
        </g>
        <g transform="matrix(1,0,0,1,4,-1.13687e-13)">
            <path d="M690,1188L740,1365L807,1188L690,1188Z" style="fill:rgb(225,174,144);"></path>
        </g>
        <g transform="matrix(1,0,0,1,4,-1.13687e-13)">
            <path d="M574,1365L690.5,1188L740,1365L574,1365Z" style="fill:rgb(204,137,109);"></path>
        </g>
        <g transform="matrix(1,0,0,1,4,-1.13687e-13)">
            <path d="M515,1170L690.5,1188L574,1365L515,1170Z" style="fill:rgb(190,128,106);"></path>
        </g>
        <g transform="matrix(1,0,0,1,4,-1.13687e-13)">
            <path d="M428,1365L515,1170L574,1365L428,1365Z" style="fill:rgb(150,94,71);"></path>
        </g>
        <g transform="matrix(1,0,0,1,4,-1.13687e-13)">
            <path d="M340,1142L515,1170L428,1365L340,1142Z" style="fill:rgb(103,67,43);"></path>
        </g>
        <g transform="matrix(1,0,0,1,4,-1.13687e-13)">
            <path d="M340,928L427.5,1054L340,1142L340,928Z" style="fill:rgb(51,30,15);"></path>
        </g>
        <g transform="matrix(1,0,0,1,4,-1.13687e-13)">
            <path d="M406,934L427.5,1054L340,928L406,934Z" style="fill:rgb(52,31,19);"></path>
        </g>
        <g transform="matrix(1,0,0,1,4,-1.13687e-13)">
            <path d="M457,934L427.5,1054L406,934L457,934Z" style="fill:rgb(75,48,40);"></path>
        </g>
        <g transform="matrix(1,0,0,1,4,-1.13687e-13)">
            <path d="M485,999L427.5,1054L457,934L485,999Z" style="fill:rgb(90,60,43);"></path>
        </g>
        <g transform="matrix(1,0,0,1,4,-1.13687e-13)">
            <path d="M220,890L220,912L262,934L220,890Z" style="fill:rgb(21,1,0);"></path>
        </g>
        <g transform="matrix(1,0,0,1,4,-1.13687e-13)">
            <path d="M334,912L262,934L220,890L334,912Z" style="fill:rgb(29,7,0);"></path>
        </g>
        <g transform="matrix(1,0,0,1,4,-1.13687e-13)">
            <path d="M340,928L262,934L334,912L340,928Z" style="fill:rgb(29,10,0);"></path>
        </g>
        <g transform="matrix(1,0,0,1,4,-1.13687e-13)">
            <path d="M285,1112L340,928L262,934L285,1112Z" style="fill:rgb(30,7,0);"></path>
        </g>
        <g transform="matrix(1,0,0,1,4,-1.13687e-13)">
            <path d="M256,1174L285,1112L303,1232L256,1174Z" style="fill:rgb(52,20,6);"></path>
        </g>
        <g transform="matrix(1,0,0,1,4,-1.13687e-13)">
            <path d="M340,1142L340,928L285,1112L340,1142Z" style="fill:rgb(33,12,0);"></path>
        </g>
        <g transform="matrix(1,0,0,1,4,-1.13687e-13)">
            <path d="M334,1330L285,1112L340,1142L334,1330Z" style="fill:rgb(38,12,0);"></path>
        </g>
        <g transform="matrix(1,0,0,1,4,-1.13687e-13)">
            <path d="M428.5,1365L340,1142L334,1330L428.5,1365Z" style="fill:rgb(47,22,0);"></path>
        </g>
        <g transform="matrix(1,0,0,1,4,-1.13687e-13)">
            <path d="M351,1365L428.5,1365L334,1330L351,1365Z" style="fill:rgb(36,10,0);"></path>
        </g>
        <g transform="matrix(1,0,0,1,4,-1.13687e-13)">
            <path d="M515,1170L340,1142L427.5,1054L515,1170Z" style="fill:rgb(80,55,38);"></path>
        </g>
        <g transform="matrix(1,0,0,1,4,-1.13687e-13)">
            <path d="M500,1042L427.5,1054L515,1170L500,1042Z" style="fill:rgb(126,89,65);"></path>
        </g>
        <g transform="matrix(1,0,0,1,4,-1.13687e-13)">
            <path d="M485,999L427.5,1054L500,1042L485,999Z" style="fill:rgb(112,77,49);"></path>
        </g>
        <g transform="matrix(1,0,0,1,4,-1.13687e-13)">
            <path d="M952,1120L872,1169L916,1078L952,1120Z" style="fill:rgb(125,90,85);"></path>
        </g>
        <g transform="matrix(1,0,0,1,4,-1.13687e-13)">
            <path d="M693,820L610,925L582,827L693,820Z" style="fill:rgb(182,137,130);"></path>
        </g>
        <g transform="matrix(1,0,0,1,4,-1.13687e-13)">
            <path d="M482,934L610,925L507,849L482,934Z" style="fill:rgb(169,124,107);"></path>
        </g>
        <g transform="matrix(1,0,0,1,4,-1.13687e-13)">
            <path d="M485,999L457,934L482,934L485,999Z" style="fill:rgb(63,44,30);"></path>
        </g>
        <g transform="matrix(1,0,0,1,4,-1.13687e-13)">
            <path d="M610,925L485,999L482,934L610,925Z" style="fill:rgb(150,122,101);"></path>
        </g>
        <g transform="matrix(1,0,0,1,4,-1.13687e-13)">
            <path d="M644,927L657,975L610,925L644,927Z" style="fill:rgb(113,85,81);"></path>
        </g>
        <g transform="matrix(1,0,0,1,4,-1.13687e-13)">
            <path d="M485,999L657,975L610,925L485,999Z" style="fill:rgb(161,118,105);"></path>
        </g>
        <g transform="matrix(1,0,0,1,4,-1.13687e-13)">
            <path d="M500,1042L485,999L657,975L500,1042Z" style="fill:rgb(170,137,114);"></path>
        </g>
        <g transform="matrix(1,0,0,1,4,-1.13687e-13)">
            <path d="M639,1094L657,975L500,1042L639,1094Z" style="fill:rgb(159,127,108);"></path>
        </g>
        <g transform="matrix(1,0,0,1,4,-1.13687e-13)">
            <path d="M726,1000L657,975L639,1094L726,1000Z" style="fill:rgb(186,143,125);"></path>
        </g>
        <g transform="matrix(1,0,0,1,4,-1.13687e-13)">
            <path d="M758,1000L742,1103L726,1000L758,1000Z" style="fill:rgb(205,165,142);"></path>
        </g>
        <g transform="matrix(1,0,0,1,4,-1.13687e-13)">
            <path d="M639,1094L742,1103L726,1000L639,1094Z" style="fill:rgb(171,132,125);"></path>
        </g>
        <g transform="matrix(1,0,0,1,4,-1.13687e-13)">
            <path d="M807,1103L758,1000L742,1103L807,1103Z" style="fill:rgb(217,168,145);"></path>
        </g>
        <g transform="matrix(1,0,0,1,4,-1.13687e-13)">
            <path d="M839,990L807,1103L758,1000L839,990Z" style="fill:rgb(250,208,185);"></path>
        </g>
        <g transform="matrix(1,0,0,1,4,-1.13687e-13)">
            <path d="M916,1078L807,1103L839,990L916,1078Z" style="fill:rgb(218,172,169);"></path>
        </g>
        <g transform="matrix(1,0,0,1,4,-1.13687e-13)">
            <path d="M944,1046L957,1005L866,959L944,1046Z" style="fill:rgb(121,107,116);"></path>
        </g>
        <g transform="matrix(1,0,0,1,4,-1.13687e-13)">
            <path d="M916,1078L866,959L944,1046L916,1078Z" style="fill:rgb(138,107,103);"></path>
        </g>
        <g transform="matrix(1,0,0,1,4,-1.13687e-13)">
            <path d="M839,990L866,959L916,1078L839,990Z" style="fill:rgb(186,152,146);"></path>
        </g>
        <g transform="matrix(1,0,0,1,4,-1.13687e-13)">
            <path d="M986,682.5L1054,819L1003,862L986,682.5Z" style="fill:rgb(235,163,136);"></path>
        </g>
        <g transform="matrix(1,0,0,1,4,-1.13687e-13)">
            <path d="M1144,893L1156,882L1152,868L1144,893Z" style="fill:rgb(60,58,74);"></path>
        </g>
        <g transform="matrix(1,0,0,1,4,-1.13687e-13)">
            <path d="M789,810L787,822L902,846L789,810Z" style="fill:rgb(74,48,32);"></path>
        </g>
        <g transform="matrix(1,0,0,1,4,-1.13687e-13)">
            <path d="M906,832L902,846L789,810L906,832Z" style="fill:rgb(58,41,28);"></path>
        </g>
        <g transform="matrix(1,0,0,1,4,-1.13687e-13)">
            <path d="M971,874L906,832L902,846L971,874Z" style="fill:rgb(81,51,20);"></path>
        </g>
        <g transform="matrix(1,0,0,1,4,-1.13687e-13)">
            <path d="M979.5,863L906,832L971,874L979.5,863Z" style="fill:rgb(70,33,18);"></path>
        </g>
        <g transform="matrix(1,0,0,1,4,-1.13687e-13)">
            <path d="M334,1330L308,1342L235,1307L334,1330Z" style="fill:rgb(112,63,45);"></path>
        </g>
        <g transform="matrix(1,0,0,1,4,-1.13687e-13)">
            <path d="M196,1239L215.5,1184L235,1307L196,1239Z" style="fill:rgb(66,37,30);"></path>
        </g>
        <g transform="matrix(1,0,0,1,4,-1.13687e-13)">
            <path d="M303,1232L285,1112L334,1330L303,1232Z" style="fill:rgb(61,31,4);"></path>
        </g>
        <g transform="matrix(1,0,0,1,4,-1.13687e-13)">
            <path d="M215.5,1184L303,1232L235,1307L215.5,1184Z" style="fill:rgb(136,81,57);"></path>
        </g>
        <g transform="matrix(1,0,0,1,4,-1.13687e-13)">
            <path d="M334,1330L303,1232L235,1307L334,1330Z" style="fill:rgb(114,68,49);"></path>
        </g>
        <g transform="matrix(1,0,0,1,4,-1.13687e-13)">
            <path d="M157,1116L215.5,1184L196,1239L157,1116Z" style="fill:rgb(89,49,38);"></path>
        </g>
        <g transform="matrix(1,0,0,1,4,-1.13687e-13)">
            <path d="M209,1097L157,1116L215.5,1184L209,1097Z" style="fill:rgb(147,94,72);"></path>
        </g>
        <g transform="matrix(1,0,0,1,4,-1.13687e-13)">
            <path d="M186.25,1030L157,1116L209,1097L186.25,1030Z" style="fill:rgb(159,102,76);"></path>
        </g>
        <g transform="matrix(1,0,0,1,4,-1.13687e-13)">
            <path d="M231,1012L209,1097L186.25,1030L231,1012Z" style="fill:rgb(132,85,55);"></path>
        </g>
        <g transform="matrix(1,0,0,1,4,-1.13687e-13)">
            <path d="M256,1058L209,1097L231,1012L256,1058Z" style="fill:rgb(83,40,18);"></path>
        </g>
        <g transform="matrix(1,0,0,1,4,-1.13687e-13)">
            <path d="M256,1174L209,1097L256,1058L256,1174Z" style="fill:rgb(134,80,58);"></path>
        </g>
        <g transform="matrix(1,0,0,1,4,-1.13687e-13)">
            <path d="M285,1112L256,1174L256,1058L285,1112Z" style="fill:rgb(60,33,16);"></path>
        </g>
        <g transform="matrix(1,0,0,1,4,-1.13687e-13)">
            <path d="M262,934L285,1112L256,1058L262,934Z" style="fill:rgb(68,37,16);"></path>
        </g>
        <g transform="matrix(1,0,0,1,4,-1.13687e-13)">
            <path d="M231,1012L256,1058L262,934L231,1012Z" style="fill:rgb(97,59,41);"></path>
        </g>
        <g transform="matrix(1,0,0,1,4,-1.13687e-13)">
            <path d="M192,956L262,934L231,1012L192,956Z" style="fill:rgb(93,52,39);"></path>
        </g>
        <g transform="matrix(1,0,0,1,4,-1.13687e-13)">
            <path d="M220,912L262,934L192,956L220,912Z" style="fill:rgb(81,44,29);"></path>
        </g>
        <g transform="matrix(1,0,0,1,4,-1.13687e-13)">
            <path d="M169,880L192,956L220,912L169,880Z" style="fill:rgb(99,52,39);"></path>
        </g>
        <g transform="matrix(1,0,0,1,4,-1.13687e-13)">
            <path d="M169,950L192,956L169,880L169,950Z" style="fill:rgb(117,69,48);"></path>
        </g>
        <g transform="matrix(1,0,0,1,4,-1.13687e-13)">
            <path d="M133,904L169,880L169,950L133,904Z" style="fill:rgb(86,43,28);"></path>
        </g>
        <g transform="matrix(1,0,0,1,4,-1.13687e-13)">
            <path d="M130,975L169,950L133,904L130,975Z" style="fill:rgb(113,50,14);"></path>
        </g>
        <g transform="matrix(1,0,0,1,4,-1.13687e-13)">
            <path d="M169,1004L169,950L192,956L169,1004Z" style="fill:rgb(69,20,2);"></path>
        </g>
        <g transform="matrix(1,0,0,1,4,-1.13687e-13)">
            <path d="M186,1030L169,1004L192,956L186,1030Z" style="fill:rgb(61,21,4);"></path>
        </g>
        <g transform="matrix(1,0,0,1,4,-1.13687e-13)">
            <path d="M231,1012L192,956L186,1030L231,1012Z" style="fill:rgb(62,25,7);"></path>
        </g>
        <g transform="matrix(1,0,0,1,4,-1.13687e-13)">
            <path d="M169,1004L186,1030L157,1116L169,1004Z" style="fill:rgb(83,36,27);"></path>
        </g>
        <g transform="matrix(1,0,0,1,4,-1.13687e-13)">
            <path d="M133,1012L130,975L169,950L133,1012Z" style="fill:rgb(112,54,33);"></path>
        </g>
        <g transform="matrix(1,0,0,1,4,-1.13687e-13)">
            <path d="M169,1004L169,950L133,1012L169,1004Z" style="fill:rgb(79,21,1);"></path>
        </g>
        <g transform="matrix(1,0,0,1,4,-1.13687e-13)">
            <path d="M133,1012L157,1116L169,1004L133,1012Z" style="fill:rgb(97,42,24);"></path>
        </g>
        <g transform="matrix(1,0,0,1,4,-1.13687e-13)">
            <path d="M215.5,1184L256,1174L209,1097L215.5,1184Z" style="fill:rgb(77,37,27);"></path>
        </g>
        <g transform="matrix(1,0,0,1,4,-1.13687e-13)">
            <path d="M303,1232L215.5,1184L256,1174L303,1232Z" style="fill:rgb(60,31,27);"></path>
        </g>
        <!-- BRIDGE -->
        <g transform="matrix(1,0,0,1,4,-1.13687e-13)">
            <path d="M1003,862L1054,819L1116,865.923L1003,862Z" style="fill:rgb(235,168,140);"></path>
        </g>
        <g transform="matrix(1,0,0,1,4,-1.13687e-13)">
            <path d="M988,887L986,682.5L1003,862L988,887Z" style="fill:rgb(239,161,133);"></path>
        </g>
        <g transform="matrix(1,0,0,1,4,-1.13687e-13)">
            <path d="M1117,910L1116,865.923L1066,910L1117,910Z" style="fill:rgb(237,176,159);"></path>
        </g>
        <g transform="matrix(1,0,0,1,4,-1.13687e-13)">
            <path d="M1003,862L1116,865.923L1066,910L1003,862Z" style="fill:rgb(212,155,137);"></path>
        </g>
        <g transform="matrix(1,0,0,1,4,-1.13687e-13)">
            <path d="M988,887L1066,910L1003,862L988,887Z" style="fill:rgb(189,134,123);"></path>
        </g>
        <g transform="matrix(1,0,0,1,4,-1.13687e-13)">
            <path d="M988,887L979.5,863L971,874L988,887Z" style="fill:rgb(50,44,38);"></path>
        </g>
        <g transform="matrix(1,0,0,1,4,-1.13687e-13)">
            <path d="M1133,682.5L1116,865.923L1054,819L1133,682.5Z" style="fill:rgb(255,198,164);"></path>
        </g>
        <g transform="matrix(1,0,0,1,4,-1.13687e-13)">
            <path d="M1155,737L1133,682.5L1155,682.5L1155,737Z" style="fill:rgb(240,192,158);"></path>
        </g>
        <g transform="matrix(1,0,0,1,4,-1.13687e-13)">
            <path d="M1116,865.923L1133,682.5L1155,737L1116,865.923Z" style="fill:rgb(235,178,142);"></path>
        </g>
        <g transform="matrix(1,0,0,1,4,-1.13687e-13)">
            <path d="M1207,769L1155,737L1116,865.923L1207,769Z" style="fill:rgb(245,175,145);"></path>
        </g>
        <g transform="matrix(1,0,0,1,4,-1.13687e-13)">
            <path d="M986,682.5L1133,682.5L1054,819L986,682.5Z" style="fill:rgb(237,186,151);"></path>
        </g>
        <g transform="matrix(1,0,0,1,4,-1.13687e-13)">
            <path d="M1238,785L1314,748.5L1207,769L1238,785Z" style="fill:rgb(189,116,76);"></path>
        </g>
        <g transform="matrix(1,0,0,1,4,-1.13687e-13)">
            <path d="M1286,728L1314,748.5L1207,769L1286,728Z" style="fill:rgb(157,100,61);"></path>
        </g>
        <g transform="matrix(1,0,0,1,4,-1.13687e-13)">
            <path d="M1152,868L1171,854L1156,882L1152,868Z" style="fill:rgb(55,51,55);"></path>
        </g>
        <g transform="matrix(1,0,0,1,4,-1.13687e-13)">
            <path d="M1116,865.923L1144,893L1152,868L1116,865.923Z" style="fill:rgb(203,128,99);"></path>
        </g>
        <g transform="matrix(1,0,0,1,4,-1.13687e-13)">
            <path d="M1171,854L1116,865.923L1152,868L1171,854Z" style="fill:rgb(207,136,106);"></path>
        </g>
        <g transform="matrix(1,0,0,1,4,-1.13687e-13)">
            <path d="M1238,785L1171,854L1116,865.923L1238,785Z" style="fill:rgb(219,150,113);"></path>
        </g>
        <g transform="matrix(1,0,0,1,4,-1.13687e-13)">
            <path d="M1219,842L1238,785L1171,854L1219,842Z" style="fill:rgb(219,158,109);"></path>
        </g>
        <g transform="matrix(1,0,0,1,4,-1.13687e-13)">
            <path d="M1274,832L1238,785L1219,842L1274,832Z" style="fill:rgb(217,156,109);"></path>
        </g>
        <g transform="matrix(1,0,0,1,4,-1.13687e-13)">
            <path d="M1335,825L1334,801L1274,832L1335,825Z" style="fill:rgb(219,170,121);"></path>
        </g>
        <g transform="matrix(1,0,0,1,4,-1.13687e-13)">
            <path d="M1238,785L1274,832L1334,801L1238,785Z" style="fill:rgb(223,166,120);"></path>
        </g>
        <g transform="matrix(1,0,0,1,4,-1.13687e-13)">
            <path d="M979.5,863L986,682.5L988,887L979.5,863Z" style="fill:rgb(240,167,139);"></path>
        </g>
        <g transform="matrix(1,0,0,1,4,-1.13687e-13)">
            <path d="M829,708L789,810L906,832L829,708Z" style="fill:rgb(213,149,117);"></path>
        </g>
        <g transform="matrix(1,0,0,1,4,-1.13687e-13)">
            <path d="M693,820L789,810L787,822L693,820Z" style="fill:rgb(52,49,30);"></path>
        </g>
        <g transform="matrix(1,0,0,1,4,-1.13687e-13)">
            <path d="M693,806L789,810L693,820L693,806Z" style="fill:rgb(32,33,39);"></path>
        </g>
        <g transform="matrix(1,0,0,1,4,-1.13687e-13)">
            <path d="M751,720L693,806L789,810L751,720Z" style="fill:rgb(218,166,130);"></path>
        </g>
        <g transform="matrix(1,0,0,1,4,-1.13687e-13)">
            <path d="M580,816L693,820L693,806L580,816Z" style="fill:rgb(32,32,32);"></path>
        </g>
        <g transform="matrix(1,0,0,1,4,-1.13687e-13)">
            <path d="M624,763L580,816L693,806L624,763Z" style="fill:rgb(179,120,93);"></path>
        </g>
        <g transform="matrix(1,0,0,1,4,-1.13687e-13)">
            <path d="M582,827L580,816L693,820L582,827Z" style="fill:rgb(47,37,31);"></path>
        </g>
        <g transform="matrix(1,0,0,1,4,-1.13687e-13)">
            <path d="M507,849L580,816L582,827L507,849Z" style="fill:rgb(25,10,8);"></path>
        </g>
        <g transform="matrix(1,0,0,1,4,-1.13687e-13)">
            <path d="M503,838L580,816L507,849L503,838Z" style="fill:rgb(25,13,11);"></path>
        </g>
        <g transform="matrix(1,0,0,1,4,-1.13687e-13)">
            <path d="M507,849L486,874L503,838L507,849Z" style="fill:rgb(33,21,16);"></path>
        </g>
        <g transform="matrix(1,0,0,1,4,-1.13687e-13)">
            <path d="M340,868L220,890L214,868L340,868Z" style="fill:rgb(14,0,0);"></path>
        </g>
        <g transform="matrix(1,0,0,1,4,-1.13687e-13)">
            <path d="M334,912L340,868L220,890L334,912Z" style="fill:rgb(30,29,35);"></path>
        </g>
        <g transform="matrix(1,0,0,1,4,-1.13687e-13)">
            <path d="M340,928L334,912L340,868L340,928Z" style="fill:rgb(2,2,14);"></path>
        </g>
        <g transform="matrix(1,0,0,1,4,-1.13687e-13)">
            <path d="M406,874L340,868L340,928L406,874Z" style="fill:rgb(6,3,13);"></path>
        </g>
        <g transform="matrix(1,0,0,1,4,-1.13687e-13)">
            <path d="M406,934L406,874L340,928L406,934Z" style="fill:rgb(35,40,43);"></path>
        </g>
        <g transform="matrix(1,0,0,1,4,-1.13687e-13)">
            <path d="M457,874L406,874L406,934L457,874Z" style="fill:rgb(19,15,28);"></path>
        </g>
        <g transform="matrix(1,0,0,1,4,-1.13687e-13)">
            <path d="M457,934L457,874L406,934L457,934" style="fill:rgb(14,2,2);"></path>
        </g>
        <g transform="matrix(1,0,0,1,4,-1.13687e-13)">
            <path d="M486,874L457,874L457,934L486,874Z" style="fill:rgb(28,21,4);"></path>
        </g>
        <g transform="matrix(1,0,0,1,4,-1.13687e-13)">
            <path d="M482,934L486,874L457,934L482,934Z" style="fill:rgb(65,59,24);"></path>
        </g>
        <g transform="matrix(1,0,0,1,4,-1.13687e-13)">
            <path d="M507,849L482,934L486,874L507,849Z" style="fill:rgb(126,119,100);"></path>
        </g>
        <g transform="matrix(1,0,0,1,4,-1.13687e-13)">
            <path d="M1155,737L1155,682.5L1224,682.5L1155,737Z" style="fill:rgb(205,149,119);"></path>
        </g>
        <g transform="matrix(1,0,0,1,4,-1.13687e-13)">
            <path d="M1286,728L1155,737L1224,682.5L1286,728Z" style="fill:rgb(179,114,79);"></path>
        </g>
        <g transform="matrix(1,0,0,1,4,-1.13687e-13)">
            <path d="M1207,769L1286,728L1155,737L1207,769Z" style="fill:rgb(189,124,90);"></path>
        </g>
        <g transform="matrix(1,0,0,1,4,-1.13687e-13)">
            <path d="M1201,857L1156,882L1171,854L1201,857Z" style="fill:rgb(53,53,51);"></path>
        </g>
        <g transform="matrix(1,0,0,1,4,-1.13687e-13)">
            <path d="M1219,842L1171,854L1201,857L1219,842Z" style="fill:rgb(37,35,31);"></path>
        </g>
        <g transform="matrix(1,0,0,1,4,-1.13687e-13)">
            <path d="M1250,845L1219,842L1201,857L1250,845Z" style="fill:rgb(37,40,29);"></path>
        </g>
        <g transform="matrix(1,0,0,1,4,-1.13687e-13)">
            <path d="M1274,832L1219,842L1250,845L1274,832Z" style="fill:rgb(74,75,59);"></path>
        </g>
        <g transform="matrix(1,0,0,1,4,-1.13687e-13)">
            <path d="M1305,837L1274,832L1250,845L1305,837Z" style="fill:rgb(69,74,48);"></path>
        </g>
        <g transform="matrix(1,0,0,1,4,-1.13687e-13)">
            <path d="M1335,825L1274,832L1305,837L1335,825Z" style="fill:rgb(89,101,92);"></path>
        </g>
        <g transform="matrix(1,0,0,1,4,-1.13687e-13)">
            <path d="M1377,834L1335,825L1305,837L1377,834Z" style="fill:rgb(49,48,57);"></path>
        </g>
        <g transform="matrix(1,0,0,1,4,-1.13687e-13)">
            <path d="M1437,827L1377,834L1335,825L1437,827Z" style="fill:rgb(71,70,68);"></path>
        </g>
        <g transform="matrix(1,0,0,1,4,-1.13687e-13)">
            <path d="M1334,801L1335,825L1437,827L1334,801Z" style="fill:rgb(225,174,125);"></path>
        </g>
        <g transform="matrix(1,0,0,1,4,-1.13687e-13)">
            <path d="M1238,785L1334,801L1314,748.5L1238,785Z" style="fill:rgb(149,95,56);"></path>
        </g>
        <g transform="matrix(1,0,0,1,4,-1.13687e-13)">
            <path d="M1116,865.923L1207,769L1238,785L1116,865.923Z" style="fill:rgb(216,138,104);"></path>
        </g>
        <g transform="matrix(1,0,0,1,4,-1.13687e-13)">
            <path d="M1437,795L1334,801L1314,748.5L1437,795Z" style="fill:rgb(207,159,118);"></path>
        </g>
        <g transform="matrix(1,0,0,1,4,-1.13687e-13)">
            <path d="M1437,827L1437,795L1334,801L1437,827Z" style="fill:rgb(218,174,131);"></path>
        </g>
        <g transform="matrix(1,0,0,1,4,-1.13687e-13)">
            <path d="M1481,842L1437,827L1377,834L1481,842Z" style="fill:rgb(56,46,47);"></path>
        </g>
        <g transform="matrix(1,0,0,1,4,-1.13687e-13)">
            <path d="M1481,878L1569,861L1481,842L1481,878Z" style="fill:rgb(208,201,182);"></path>
        </g>
        <g transform="matrix(1,0,0,1,4,-1.13687e-13)">
            <path d="M1597,891L1569,861L1481,878L1597,891Z" style="fill:rgb(210,206,189);"></path>
        </g>
        <g transform="matrix(1,0,0,1,4,-1.13687e-13)">
            <path d="M1486,832.052L1437,827L1481,842L1486,832.052Z" style="fill:rgb(80,82,76);"></path>
        </g>
        <g transform="matrix(1,0,0,1,4,-1.13687e-13)">
            <path d="M1534,837L1486,832.052L1481,842L1534,837Z" style="fill:rgb(110,104,97);"></path>
        </g>
        <g transform="matrix(1,0,0,1,4,-1.13687e-13)">
            <path d="M1481,776L1437,795L1486,832.052L1481,776Z" style="fill:rgb(255,244,215);"></path>
        </g>
        <g transform="matrix(1,0,0,1,4,-1.13687e-13)">
            <path d="M1385,595L1437,795L1481,776L1385,595Z" style="fill:rgb(255,228,197);"></path>
        </g>
        <g transform="matrix(1,0,0,1,4,-1.13687e-13)">
            <path d="M1463,579L1385,595L1481,776L1463,579" style="fill:rgb(255,242,212);"></path>
        </g>
        <g transform="matrix(1,0,0,1,4,-1.13687e-13)">
            <path d="M1437,827L1486,832.052L1437,795L1437,827Z" style="fill:rgb(245,222,191);"></path>
        </g>
        <g transform="matrix(1,0,0,1,4,-1.13687e-13)">
            <path d="M1569,861L1534,837L1481,842L1569,861Z" style="fill:rgb(66,65,60);"></path>
        </g>
        <g transform="matrix(1,0,0,1,4,-1.13687e-13)">
            <path d="M1596,865L1534,837L1569,861L1596,865Z" style="fill:rgb(35,34,29);"></path>
        </g>
        <g transform="matrix(1,0,0,1,4,-1.13687e-13)">
            <path d="M1612,884L1569,861L1596,865L1612,884Z" style="fill:rgb(46,38,29);"></path>
        </g>
        <g transform="matrix(1,0,0,1,4,-1.13687e-13)">
            <path d="M1596,891L1569,861L1612,884L1596,891Z" style="fill:rgb(192,176,163);"></path>
        </g>
        <g transform="matrix(1,0,0,1,4,-1.13687e-13)">
            <path d="M1612,898L1596,891L1612,884L1612,898Z" style="fill:rgb(81,65,53);"></path>
        </g>
        <g transform="matrix(1,0,0,1,4,-1.13687e-13)">
            <path d="M1615,908L1612,898L1596,891L1615,908Z" style="fill:rgb(106,93,66);"></path>
        </g>
        <g transform="matrix(1,0,0,1,4,-1.13687e-13)">
            <path d="M1653,898L1615,908L1612,898L1653,898Z" style="fill:rgb(74,69,68);"></path>
        </g>
        <g transform="matrix(1,0,0,1,4,-1.13687e-13)">
            <path d="M1653,908L1615,908L1653,898L1653,908Z" style="fill:rgb(117,114,104);"></path>
        </g>
        <g transform="matrix(1,0,0,1,4,-1.13687e-13)">
            <path d="M1644,958L1653,908L1615,908L1644,958Z" style="fill:rgb(107,64,46);"></path>
        </g>
        <g transform="matrix(1,0,0,1,4,-1.13687e-13)">
            <path d="M1615,961L1615,908L1644,958L1615,961Z" style="fill:rgb(133,86,75);"></path>
        </g>
        <g transform="matrix(1,0,0,1,4,-1.13687e-13)">
            <path d="M1596,891L1615,961L1615,908L1596,891Z" style="fill:rgb(120,86,66);"></path>
        </g>
        <g transform="matrix(1,0,0,1,4,-1.13687e-13)">
            <path d="M1601,953L1596,891L1615,961L1601,953Z" style="fill:rgb(144,114,109);"></path>
        </g>
        <g transform="matrix(1,0,0,1,4,-1.13687e-13)">
            <path d="M1601,992L1613,992L1601,953L1601,992Z" style="fill:rgb(129,102,85);"></path>
        </g>
        <g transform="matrix(1,0,0,1,4,-1.13687e-13)">
            <path d="M1478,902L1481,878L1601,953L1478,902Z" style="fill:rgb(180,171,169);"></path>
        </g>
        <g transform="matrix(1,0,0,1,4,-1.13687e-13)">
            <path d="M1596,891L1601,953L1481,878L1596,891Z" style="fill:rgb(169,158,147);"></path>
        </g>
        <g transform="matrix(1,0,0,1,4,-1.13687e-13)">
            <path d="M1613,992L1615,961L1601,953L1613,992Z" style="fill:rgb(96,79,68);"></path>
        </g>
        <g transform="matrix(1,0,0,1,4,-1.13687e-13)">
            <path d="M1392,882L1305,837L1295,888L1392,882Z" style="fill:rgb(248,229,202);"></path>
        </g>
        <g transform="matrix(1,0,0,1,4,-1.13687e-13)">
            <path d="M1358,899L1295,888L1392,882L1358,899Z" style="fill:rgb(243,213,182);"></path>
        </g>
        <g transform="matrix(1,0,0,1,4,-1.13687e-13)">
            <path d="M1377,834L1392,882L1305,837L1377,834Z" style="fill:rgb(251,229,211);"></path>
        </g>
        <g transform="matrix(1,0,0,1,4,-1.13687e-13)">
            <path d="M1481,842L1377,834L1392,882L1481,842Z" style="fill:rgb(247,225,202);"></path>
        </g>
        <g transform="matrix(1,0,0,1,4,-1.13687e-13)">
            <path d="M1481,878L1392,882L1481,842L1481,878Z" style="fill:rgb(250,235,210);"></path>
        </g>
        <g transform="matrix(1,0,0,1,4,-1.13687e-13)">
            <path d="M1373,930L1392,882L1358,899L1373,930Z" style="fill:rgb(243,217,191);"></path>
        </g>
        <g transform="matrix(1,0,0,1,4,-1.13687e-13)">
            <path d="M1478,902L1392,882L1373,930L1478,902Z" style="fill:rgb(246,214,186);"></path>
        </g>
        <g transform="matrix(1,0,0,1,4,-1.13687e-13)">
            <path d="M1481,878L1392,882L1478,902L1481,878Z" style="fill:rgb(252,227,194);"></path>
        </g>
        <g transform="matrix(1,0,0,1,4,-1.13687e-13)">
            <path d="M1478,985L1373,930L1478,902L1478,985Z" style="fill:rgb(243,213,184);"></path>
        </g>
        <g transform="matrix(1,0,0,1,4,-1.13687e-13)">
            <path d="M1352,968L1373,930L1478,985L1352,968Z" style="fill:rgb(245,213,187);"></path>
        </g>
        <g transform="matrix(1,0,0,1,4,-1.13687e-13)">
            <path d="M644,927L726,887L691,925L644,927Z" style="fill:rgb(149,143,140);"></path>
        </g>
        <g transform="matrix(1,0,0,1,4,-1.13687e-13)">
            <path d="M691,967L691,925L644,927L691,967Z" style="fill:rgb(139,138,133);"></path>
        </g>
        <g transform="matrix(1,0,0,1,4,-1.13687e-13)">
            <path d="M657,975L644,927L691,967L657,975Z" style="fill:rgb(132,117,111);"></path>
        </g>
        <g transform="matrix(1,0,0,1,4,-1.13687e-13)">
            <path d="M726,1000L691,967L657,975L726,1000Z" style="fill:rgb(143,132,121);"></path>
        </g>
        <g transform="matrix(1,0,0,1,4,-1.13687e-13)">
            <path d="M758,1000L787,975L839,990L758,1000Z" style="fill:rgb(233,234,206);"></path>
        </g>
        <g transform="matrix(1,0,0,1,4,-1.13687e-13)">
            <path d="M795.5,946L787,975L839,990L795.5,946Z" style="fill:rgb(216,220,185);"></path>
        </g>
        <g transform="matrix(1,0,0,1,4,-1.13687e-13)">
            <path d="M866,959L839,990L795.5,946L866,959Z" style="fill:rgb(204,198,163);"></path>
        </g>
        <g transform="matrix(1,0,0,1,4,-1.13687e-13)">
            <path d="M787,916L866,959L795.5,946L787,916Z" style="fill:rgb(211,205,170);"></path>
        </g>
        <g transform="matrix(1,0,0,1,4,-1.13687e-13)">
            <path d="M772,897L787,916L810,897L772,897Z" style="fill:rgb(205,202,185);"></path>
        </g>
        <g transform="matrix(1,0,0,1,4,-1.13687e-13)">
            <path d="M866,959L787,916L810,897L866,959Z" style="fill:rgb(203,206,185);"></path>
        </g>
        <g transform="matrix(1,0,0,1,4,-1.13687e-13)">
            <path d="M748,885L772,897L810,897L748,885Z" style="fill:rgb(187,180,165);"></path>
        </g>
        <g transform="matrix(1,0,0,1,4,-1.13687e-13)">
            <path d="M726,887L748,885L745,916L726,887Z" style="fill:rgb(38,48,56);"></path>
        </g>
        <g transform="matrix(1,0,0,1,4,-1.13687e-13)">
            <path d="M761,923L745,916L748,885L761,923Z" style="fill:rgb(66,71,76);"></path>
        </g>
        <g transform="matrix(1,0,0,1,4,-1.13687e-13)">
            <path d="M772,897L761,923L748,885L772,897Z" style="fill:rgb(49,53,57);"></path>
        </g>
        <g transform="matrix(1,0,0,1,4,-1.13687e-13)">
            <path d="M787,916L761,923L772,897L787,916Z" style="fill:rgb(30,41,42);"></path>
        </g>
        <g transform="matrix(1,0,0,1,4,-1.13687e-13)">
            <path d="M766,940L761,923L787,916L766,940Z" style="fill:rgb(55,70,70);"></path>
        </g>
        <g transform="matrix(1,0,0,1,4,-1.13687e-13)">
            <path d="M795.5,946L787,916L766,940L795.5,946Z" style="fill:rgb(66,74,65);"></path>
        </g>
        <g transform="matrix(1,0,0,1,4,-1.13687e-13)">
            <path d="M761,951L766,940L795.5,946L761,951Z" style="fill:rgb(94,99,85);"></path>
        </g>
        <g transform="matrix(1,0,0,1,4,-1.13687e-13)">
            <path d="M787,975L761,951L795.5,946L787,975Z" style="fill:rgb(114,114,103);"></path>
        </g>
        <g transform="matrix(1,0,0,1,4,-1.13687e-13)">
            <path d="M745,961L761,951L787,975L745,961Z" style="fill:rgb(107,107,98);"></path>
        </g>
        <g transform="matrix(1,0,0,1,4,-1.13687e-13)">
            <path d="M758,1000L745,961L787,975L758,1000Z" style="fill:rgb(121,147,126);"></path>
        </g>
        <g transform="matrix(1,0,0,1,4,-1.13687e-13)">
            <path d="M726,1000L745,961L758,1000L726,1000Z" style="fill:rgb(127,159,142);"></path>
        </g>
        <g transform="matrix(1,0,0,1,4,-1.13687e-13)">
            <path d="M1000,910L994,1009L1066,910L1000,910Z" style="fill:rgb(149,96,89);"></path>
        </g>
        <g transform="matrix(1,0,0,1,4,-1.13687e-13)">
            <path d="M994,1009L1147,999L1066,910L994,1009Z" style="fill:rgb(218,160,150);"></path>
        </g>
        <g transform="matrix(1,0,0,1,4,-1.13687e-13)">
            <path d="M1117,910L1147,999L1066,910L1117,910Z" style="fill:rgb(214,158,147);"></path>
        </g>
        <g transform="matrix(1,0,0,1,4,-1.13687e-13)">
            <path d="M1147,999L1125,1114L994,1009L1147,999Z" style="fill:rgb(195,137,120);"></path>
        </g>
        <g transform="matrix(1,0,0,1,4,-1.13687e-13)">
            <path d="M1147,999L1162.9,1063.41L1125,1114L1147,999Z" style="fill:rgb(254,214,190);"></path>
        </g>
        <g transform="matrix(1,0,0,1,4,-1.13687e-13)">
            <path d="M1169,1023L1162.9,1063.41L1147,999L1169,1023Z" style="fill:rgb(194,156,134);"></path>
        </g>
        <g transform="matrix(1,0,0,1,4,-1.13687e-13)">
            <path d="M1182,1060L1194,1123L1162.9,1063.41L1182,1060Z" style="fill:rgb(243,208,180);"></path>
        </g>
        <g transform="matrix(1,0,0,1,4,-1.13687e-13)">
            <path d="M1125,1114L1162.9,1063.41L1194,1123L1125,1114Z" style="fill:rgb(243,199,175);"></path>
        </g>
        <g transform="matrix(1,0,0,1,4,-1.13687e-13)">
            <path d="M1182,1060L1169,1023L1162.9,1063.41L1182,1060Z" style="fill:rgb(205,167,144);"></path>
        </g>
        <g transform="matrix(1,0,0,1,4,-1.13687e-13)">
            <path d="M1213,1085L1182,1060L1194,1123L1213,1085Z" style="fill:rgb(241,197,165);"></path>
        </g>
        <g transform="matrix(1,0,0,1,4,-1.13687e-13)">
            <path d="M1263,1102L1239,1230L1194,1123L1263,1102Z" style="fill:rgb(245,208,184);"></path>
        </g>
        <g transform="matrix(1,0,0,1,4,-1.13687e-13)">
            <path d="M1213,1085L1194,1123L1263,1102L1213,1085Z" style="fill:rgb(236,199,173);"></path>
        </g>
        <g transform="matrix(1,0,0,1,4,-1.13687e-13)">
            <path d="M1347,1114L1239,1230L1263,1102L1347,1114Z" style="fill:rgb(235,192,167);"></path>
        </g>
        <g transform="matrix(1,0,0,1,4,-1.13687e-13)">
            <path d="M1125,1114L1194,1123L1239,1230L1125,1114Z" style="fill:rgb(238,195,173);"></path>
        </g>
        <g transform="matrix(1,0,0,1,4,-1.13687e-13)">
            <path d="M1250,1276L1207,1283L1239,1230L1250,1276Z" style="fill:rgb(255,221,192);"></path>
        </g>
        <g transform="matrix(1,0,0,1,4,-1.13687e-13)">
            <path d="M1199,1329L1250,1276L1207,1283L1199,1329Z" style="fill:rgb(214,132,96);"></path>
        </g>
        <g transform="matrix(1,0,0,1,4,-1.13687e-13)">
            <path d="M1353,1230L1239,1230L1250,1276L1353,1230Z" style="fill:rgb(255,209,179);"></path>
        </g>
        <g transform="matrix(1,0,0,1,4,-1.13687e-13)">
            <path d="M1347,1114L1239,1230L1353,1230L1347,1114Z" style="fill:rgb(245,202,170);"></path>
        </g>
        <g transform="matrix(1,0,0,1,4,-1.13687e-13)">
            <path d="M1471,1104.34L1347,1114L1353,1230L1471,1104.34Z" style="fill:rgb(244,198,159);"></path>
        </g>
        <g transform="matrix(1,0,0,1,4,-1.13687e-13)">
            <path d="M1481,1222L1353,1230L1471,1104.34L1481,1222Z" style="fill:rgb(255,225,188);"></path>
        </g>
        <g transform="matrix(1,0,0,1,4,-1.13687e-13)">
            <path d="M1501,1104.34L1481,1222L1471,1104.34L1501,1104.34Z" style="fill:rgb(255,228,198);"></path>
        </g>
        <g transform="matrix(1,0,0,1,4,-1.13687e-13)">
            <path d="M1481,1365L1501,1104.34L1481,1222L1481,1365Z" style="fill:rgb(193,148,113);"></path>
        </g>
        <g transform="matrix(1,0,0,1,4,-1.13687e-13)">
            <path d="M1471,1104.34L1478,985L1352,968L1471,1104.34Z" style="fill:rgb(255,250,217);"></path>
        </g>
        <g transform="matrix(1,0,0,1,4,-1.13687e-13)">
            <path d="M1347,1114L1352,968L1471,1104.34L1347,1114Z" style="fill:rgb(242,214,186);"></path>
        </g>
        <g transform="matrix(1,0,0,1,4,-1.13687e-13)">
            <path d="M1481,1365L1447,1365L1481,1222L1481,1365Z" style="fill:rgb(175,107,65);"></path>
        </g>
        <g transform="matrix(1,0,0,1,4,-1.13687e-13)">
            <path d="M1353,1230L1447,1365L1481,1222L1353,1230Z" style="fill:rgb(255,223,181);"></path>
        </g>
        <g transform="matrix(1,0,0,1,4,-1.13687e-13)">
            <path d="M1236,1336L1250,1276L1199,1329L1236,1336Z" style="fill:rgb(241,175,134);"></path>
        </g>
        <g transform="matrix(1,0,0,1,4,-1.13687e-13)">
            <path d="M1447,1365L1236,1336L1353,1230L1447,1365Z" style="fill:rgb(255,212,177);"></path>
        </g>
        <g transform="matrix(1,0,0,1,4,-1.13687e-13)">
            <path d="M1216,1365L1236,1336L1169,1365L1216,1365Z" style="fill:rgb(243,171,138);"></path>
        </g>
        <g transform="matrix(1,0,0,1,4,-1.13687e-13)">
            <path d="M1447,1365L1236,1336L1216,1365L1447,1365Z" style="fill:rgb(246,204,166);"></path>
        </g>
        <g transform="matrix(1,0,0,1,4,-1.13687e-13)">
            <path d="M1353,1230L1250,1276L1236,1336L1353,1230Z" style="fill:rgb(255,212,181);"></path>
        </g>
        <g transform="matrix(1,0,0,1,4,-1.13687e-13)">
            <path d="M1024,1347L1005,1365L1103,1365L1024,1347Z" style="fill:rgb(163,87,68);"></path>
        </g>
        <g transform="matrix(1,0,0,1,4,-1.13687e-13)">
            <path d="M988,1329L1005,1365L1024,1347L988,1329Z" style="fill:rgb(170,88,74);"></path>
        </g>
        <g transform="matrix(1,0,0,1,4,-1.13687e-13)">
            <path d="M927,1337L940,1365L988,1329L927,1337Z" style="fill:rgb(153,76,57);"></path>
        </g>
        <g transform="matrix(1,0,0,1,4,-1.13687e-13)">
            <path d="M1005,1365L988,1329L940,1365L1005,1365Z" style="fill:rgb(238,160,121);"></path>
        </g>
        <g transform="matrix(1,0,0,1,4,-1.13687e-13)">
            <path d="M1217,920L1232,892L1252,909.5L1217,920Z" style="fill:rgb(106,102,89);"></path>
        </g>
        <g transform="matrix(1,0,0,1,4,-1.13687e-13)">
            <path d="M1243,927L1252,909.5L1217,920L1243,927Z" style="fill:rgb(98,100,89);"></path>
        </g>
        <g transform="matrix(1,0,0,1,4,-1.13687e-13)">
            <path d="M1252,946L1243,927L1220,950L1252,946Z" style="fill:rgb(138,138,124);"></path>
        </g>
        <g transform="matrix(1,0,0,1,4,-1.13687e-13)">
            <path d="M1275,946L1252,946L1263,985L1275,946Z" style="fill:rgb(110,108,106);"></path>
        </g>
        <g transform="matrix(1,0,0,1,4,-1.13687e-13)">
            <path d="M1283,927L1315,954L1275,946L1283,927Z" style="fill:rgb(158,167,142);"></path>
        </g>
        <g transform="matrix(1,0,0,1,4,-1.13687e-13)">
            <path d="M1275,909.5L1315,904L1283,927L1275,909.5Z" style="fill:rgb(94,116,106);"></path>
        </g>
        <g transform="matrix(1,0,0,1,4,-1.13687e-13)">
            <path d="M1252,909.5L1275,909.5L1263.5,883L1252,909.5Z" style="fill:rgb(176,171,130);"></path>
        </g>
        <g transform="matrix(1,0,0,1,4,-1.13687e-13)">
            <path d="M1232,974L1252,946L1220,950L1232,974Z" style="fill:rgb(125,129,115);"></path>
        </g>
        <g transform="matrix(1,0,0,1,4,-1.13687e-13)">
            <path d="M1263,985L1252,946L1232,974L1263,985Z" style="fill:rgb(119,113,107);"></path>
        </g>
        <g transform="matrix(1,0,0,1,4,-1.13687e-13)">
            <path d="M1315,954L1295,982L1275,946L1315,954Z" style="fill:rgb(153,155,149);"></path>
        </g>
        <g transform="matrix(1,0,0,1,4,-1.13687e-13)">
            <path d="M1263,985L1275,946L1295,982L1263,985Z" style="fill:rgb(104,106,101);"></path>
        </g>
        <g transform="matrix(1,0,0,1,4,-1.13687e-13)">
            <path d="M1178,950L1155,908L1169,1023L1178,950Z" style="fill:rgb(142,101,98);"></path>
        </g>
        <g transform="matrix(1,0,0,1,4,-1.13687e-13)">
            <path d="M1187,977L1178,950L1169,1023L1187,977Z" style="fill:rgb(163,126,124);"></path>
        </g>
        <g transform="matrix(1,0,0,1,4,-1.13687e-13)">
            <path d="M1187,923L1155,908L1178,950L1187,923Z" style="fill:rgb(190,145,125);"></path>
        </g>
        <g transform="matrix(1,0,0,1,4,-1.13687e-13)">
            <path d="M1156,882L1155,908L1187,923L1156,882Z" style="fill:rgb(169,128,105);"></path>
        </g>
        <g transform="matrix(1,0,0,1,4,-1.13687e-13)">
            <path d="M1201,857L1187,923L1156,882L1201,857Z" style="fill:rgb(178,134,110);"></path>
        </g>
        <g transform="matrix(1,0,0,1,4,-1.13687e-13)">
            <path d="M1232,892L1201,857L1187,923L1232,892Z" style="fill:rgb(175,139,108);"></path>
        </g>
        <g transform="matrix(1,0,0,1,4,-1.13687e-13)">
            <path d="M1250,845L1232,892L1201,857L1250,845Z" style="fill:rgb(205,174,149);"></path>
        </g>
        <g transform="matrix(1,0,0,1,4,-1.13687e-13)">
            <path d="M1263.5,883L1232,892L1250,845L1263.5,883Z" style="fill:rgb(213,199,178);"></path>
        </g>
        <g transform="matrix(1,0,0,1,4,-1.13687e-13)">
            <path d="M1305,837L1263.5,883L1250,845L1305,837Z" style="fill:rgb(233,223,201);"></path>
        </g>
        <g transform="matrix(1,0,0,1,4,-1.13687e-13)">
            <path d="M1295,888L1263.5,883L1305,837L1295,888Z" style="fill:rgb(255,240,209);"></path>
        </g>
        <g transform="matrix(1,0,0,1,4,-1.13687e-13)">
            <path d="M1217,920L1220,950L1243,927L1217,920Z" style="fill:rgb(78,105,90);"></path>
        </g>
        <g transform="matrix(1,0,0,1,4,-1.13687e-13)">
            <path d="M1232,892L1263.5,883L1252,909.5L1232,892Z" style="fill:rgb(193,187,149);"></path>
        </g>
        <g transform="matrix(1,0,0,1,4,-1.13687e-13)">
            <path d="M1295,888L1275,909.5L1263.5,883L1295,888Z" style="fill:rgb(194,199,152);"></path>
        </g>
        <g transform="matrix(1,0,0,1,4,-1.13687e-13)">
            <path d="M1315,904L1295,888L1275,909.5L1315,904Z" style="fill:rgb(100,135,125);"></path>
        </g>
        <g transform="matrix(1,0,0,1,4,-1.13687e-13)">
            <path d="M1323,930L1315,904L1283,927L1323,930Z" style="fill:rgb(105,143,97);"></path>
        </g>
        <g transform="matrix(1,0,0,1,4,-1.13687e-13)">
            <path d="M1315,954L1323,930L1283,927L1315,954Z" style="fill:rgb(135,154,122);"></path>
        </g>
        <g transform="matrix(1,0,0,1,4,-1.13687e-13)">
            <path d="M1263.5,927L1252,909.5L1275,909.5L1263.5,927Z" style="fill:rgb(62,66,71);"></path>
        </g>
        <g transform="matrix(1,0,0,1,4,-1.13687e-13)">
            <path d="M1283,927L1275,909.5L1263.5,927L1283,927Z" style="fill:rgb(172,191,202);"></path>
        </g>
        <g transform="matrix(1,0,0,1,4,-1.13687e-13)">
            <path d="M1275,946L1263.5,927L1283,927L1275,946Z" style="fill:rgb(137,146,149);"></path>
        </g>
        <g transform="matrix(1,0,0,1,4,-1.13687e-13)">
            <path d="M1252,946L1263.5,927L1275,946L1252,946Z" style="fill:rgb(113,119,123);"></path>
        </g>
        <g transform="matrix(1,0,0,1,4,-1.13687e-13)">
            <path d="M1243,927L1263.5,927L1252,946L1243,927Z" style="fill:rgb(65,76,86);"></path>
        </g>
        <g transform="matrix(1,0,0,1,4,-1.13687e-13)">
            <path d="M1252,909.5L1263.5,927L1243,927L1252,909.5Z" style="fill:rgb(61,69,76);"></path>
        </g>
        <g transform="matrix(1,0,0,1,4,-1.13687e-13)">
            <path d="M1295,888L1358,899L1315,904L1295,888Z" style="fill:rgb(217,211,188);"></path>
        </g>
        <g transform="matrix(1,0,0,1,4,-1.13687e-13)">
            <path d="M1352,968L1315,954L1373,930L1352,968Z" style="fill:rgb(253,234,208);"></path>
        </g>
        <g transform="matrix(1,0,0,1,4,-1.13687e-13)">
            <path d="M1323,930L1315,954L1373,930L1323,930Z" style="fill:rgb(232,212,191);"></path>
        </g>
        <g transform="matrix(1,0,0,1,4,-1.13687e-13)">
            <path d="M1295,982L1352,968L1315,954L1295,982Z" style="fill:rgb(251,232,205);"></path>
        </g>
        <g transform="matrix(1,0,0,1,4,-1.13687e-13)">
            <path d="M1263,1102L1347,1114L1295,982L1263,1102Z" style="fill:rgb(254,238,206);"></path>
        </g>
        <g transform="matrix(1,0,0,1,4,-1.13687e-13)">
            <path d="M1352,968L1347,1114L1295,982L1352,968Z" style="fill:rgb(249,245,222);"></path>
        </g>
        <g transform="matrix(1,0,0,1,4,-1.13687e-13)">
            <path d="M1263,985L1263,1102L1295,982L1263,985Z" style="fill:rgb(240,216,185);"></path>
        </g>
        <g transform="matrix(1,0,0,1,4,-1.13687e-13)">
            <path d="M1213,1085L1263,1102L1263,985L1213,1085Z" style="fill:rgb(220,188,163);"></path>
        </g>
        <g transform="matrix(1,0,0,1,4,-1.13687e-13)">
            <path d="M1182,1060L1263,985L1213,1085L1182,1060Z" style="fill:rgb(206,166,142);"></path>
        </g>
        <g transform="matrix(1,0,0,1,4,-1.13687e-13)">
            <path d="M1169,1023L1187,977L1182,1060L1169,1023Z" style="fill:rgb(223,189,168);"></path>
        </g>
        <g transform="matrix(1,0,0,1,4,-1.13687e-13)">
            <path d="M1323,930L1358,899L1315,904L1323,930Z" style="fill:rgb(211,202,180);"></path>
        </g>
        <g transform="matrix(1,0,0,1,4,-1.13687e-13)">
            <path d="M1373,930L1358,899L1323,930L1373,930Z" style="fill:rgb(248,225,205);"></path>
        </g>
        <g transform="matrix(1,0,0,1,4,-1.13687e-13)">
            <path d="M1169,1365L1199,1329L1236,1336L1169,1365Z" style="fill:rgb(233,144,108);"></path>
        </g>
        <g transform="matrix(1,0,0,1,4,-1.13687e-13)">
            <path d="M1169,1332L1199,1329L1169,1365L1169,1332Z" style="fill:rgb(235,163,136);"></path>
        </g>
        <g transform="matrix(1,0,0,1,4,-1.13687e-13)">
            <path d="M1125,1114L1147,1256.5L1239,1230L1125,1114Z" style="fill:rgb(241,189,169);"></path>
        </g>
        <g transform="matrix(1,0,0,1,4,-1.13687e-13)">
            <path d="M1207,1283L1239,1230L1147,1256.5L1207,1283" style="fill:rgb(255,206,178);"></path>
        </g>
        <g transform="matrix(1,0,0,1,4,-1.13687e-13)">
            <path d="M1125,1114L1076,1256.5L1147,1256.5L1125,1114Z" style="fill:rgb(216,156,143);"></path>
        </g>
        <g transform="matrix(1,0,0,1,4,-1.13687e-13)">
            <path d="M1103,1332L1147,1256.5L1076,1256.5L1103,1332Z" style="fill:rgb(225,153,125);"></path>
        </g>
        <g transform="matrix(1,0,0,1,4,-1.13687e-13)">
            <path d="M998,1164L1125,1114L1076,1256.5L998,1164Z" style="fill:rgb(181,118,103);"></path>
        </g>
        <g transform="matrix(1,0,0,1,4,-1.13687e-13)">
            <path d="M994,1009L998,1164L1125,1114L994,1009Z" style="fill:rgb(172,105,91);"></path>
        </g>
        <g transform="matrix(1,0,0,1,4,-1.13687e-13)">
            <path d="M1103,1332L1169,1332L1147,1256.5L1103,1332Z" style="fill:rgb(252,192,161);"></path>
        </g>
        <g transform="matrix(1,0,0,1,4,-1.13687e-13)">
            <path d="M1207,1283L1147,1256.5L1169,1332L1207,1283Z" style="fill:rgb(254,200,165);"></path>
        </g>
        <g transform="matrix(1,0,0,1,4,-1.13687e-13)">
            <path d="M1103,1332L1128,1365L1169,1332L1103,1332Z" style="fill:rgb(235,168,133);"></path>
        </g>
        <g transform="matrix(1,0,0,1,4,-1.13687e-13)">
            <path d="M1169,1365L1128,1365L1169,1332L1169,1365Z" style="fill:rgb(251,205,171);"></path>
        </g>
        <g transform="matrix(1,0,0,1,4,-1.13687e-13)">
            <path d="M1103,1332L1103,1365L1128,1365L1103,1332Z" style="fill:rgb(218,153,118);"></path>
        </g>
        <g transform="matrix(1,0,0,1,4,-1.13687e-13)">
            <path d="M1047,1294.25L1076,1256.5L1103,1332L1047,1294.25Z" style="fill:rgb(155,86,67);"></path>
        </g>
        <g transform="matrix(1,0,0,1,4,-1.13687e-13)">
            <path d="M1024,1347L1047,1294.25L1103,1332L1024,1347Z" style="fill:rgb(91,26,8);"></path>
        </g>
        <g transform="matrix(1,0,0,1,4,-1.13687e-13)">
            <path d="M1103,1365L1024,1347L1103,1332L1103,1365Z" style="fill:rgb(148,79,54);"></path>
        </g>
        <g transform="matrix(1,0,0,1,4,-1.13687e-13)">
            <path d="M998,1164L1005,1250L1076,1256.5L998,1164Z" style="fill:rgb(123,70,67);"></path>
        </g>
        <g transform="matrix(1,0,0,1,4,-1.13687e-13)">
            <path d="M1047,1294.25L1076,1256.5L1005,1250L1047,1294.25Z" style="fill:rgb(177,109,92);"></path>
        </g>
        <g transform="matrix(1,0,0,1,4,-1.13687e-13)">
            <path d="M998,1304L1021,1294.25L1005,1250L998,1304Z" style="fill:rgb(214,155,123);"></path>
        </g>
        <g transform="matrix(1,0,0,1,4,-1.13687e-13)">
            <path d="M1048,1294.25L1005,1250L1021,1294.25L1048,1294.25Z" style="fill:rgb(187,132,99);"></path>
        </g>
        <g transform="matrix(1,0,0,1,4,-1.13687e-13)">
            <path d="M952,1227L998,1164L1005,1250L952,1227Z" style="fill:rgb(65,26,34);"></path>
        </g>
        <g transform="matrix(1,0,0,1,4,-1.13687e-13)">
            <path d="M927,1277L1005,1250L952,1227L927,1277Z" style="fill:rgb(88,39,50);"></path>
        </g>
        <g transform="matrix(1,0,0,1,4,-1.13687e-13)">
            <path d="M998,1304L1005,1250L927,1277L998,1304Z" style="fill:rgb(151,82,60);"></path>
        </g>
        <g transform="matrix(1,0,0,1,4,-1.13687e-13)">
            <path d="M988,1329L1024,1347L998,1304L988,1329Z" style="fill:rgb(50,5,0);"></path>
        </g>
        <g transform="matrix(1,0,0,1,4,-1.13687e-13)">
            <path d="M1021,1294.25L1024,1347L998,1304L1021,1294.25Z" style="fill:rgb(69,22,8);"></path>
        </g>
        <g transform="matrix(1,0,0,1,4,-1.13687e-13)">
            <path d="M1047,1294.25L1024,1347L1021,1294.25L1047,1294.25Z" style="fill:rgb(67,20,9);"></path>
        </g>
        <g transform="matrix(1,0,0,1,4,-1.13687e-13)">
            <path d="M927,1277L927,1337L998,1304L927,1277Z" style="fill:rgb(175,100,74);"></path>
        </g>
        <g transform="matrix(1,0,0,1,4,-1.13687e-13)">
            <path d="M988,1329L927,1337L998,1304L988,1329Z" style="fill:rgb(185,104,82);"></path>
        </g>
        <g transform="matrix(1,0,0,1,4,-1.13687e-13)">
            <path d="M723,928L726,887L691,925L723,928Z" style="fill:rgb(66,79,74);"></path>
        </g>
        <g transform="matrix(1,0,0,1,4,-1.13687e-13)">
            <path d="M745,916L726,887L723,928L745,916Z" style="fill:rgb(61,71,70);"></path>
        </g>
        <g transform="matrix(1,0,0,1,4,-1.13687e-13)">
            <path d="M723,949L691,925L723,928L723,949Z" style="fill:rgb(75,104,87);"></path>
        </g>
        <g transform="matrix(1,0,0,1,4,-1.13687e-13)">
            <path d="M691,967L723,949L691,925L691,967Z" style="fill:rgb(116,149,131);"></path>
        </g>
        <g transform="matrix(1,0,0,1,4,-1.13687e-13)">
            <path d="M726,1000L745,961L723,949L726,1000Z" style="fill:rgb(92,118,103);"></path>
        </g>
        <g transform="matrix(1,0,0,1,4,-1.13687e-13)">
            <path d="M691,967L723,949L726,1000L691,967Z" style="fill:rgb(67,96,79);"></path>
        </g>
        <g transform="matrix(1,0,0,1,4,-1.13687e-13)">
            <path d="M745,916L745,938L761,923L745,916Z" style="fill:rgb(205,234,243);"></path>
        </g>
        <g transform="matrix(1,0,0,1,4,-1.13687e-13)">
            <path d="M745,938L766,940L761,923L745,938Z" style="fill:rgb(65,87,104);"></path>
        </g>
        <g transform="matrix(1,0,0,1,4,-1.13687e-13)">
            <path d="M761,951L745,938L766,940L761,951Z" style="fill:rgb(24,33,60);"></path>
        </g>
        <g transform="matrix(1,0,0,1,4,-1.13687e-13)">
            <path d="M745,961L745,938L761,951L745,961Z" style="fill:rgb(27,42,62);"></path>
        </g>
        <g transform="matrix(1,0,0,1,4,-1.13687e-13)">
            <path d="M723,949L745,938L745,961L723,949Z" style="fill:rgb(5,22,38);"></path>
        </g>
        <g transform="matrix(1,0,0,1,4,-1.13687e-13)">
            <path d="M723,928L745,938L723,949.5L723,928" style="fill:rgb(3,24,48);"></path>
        </g>
        <g transform="matrix(1,0,0,1,4,-1.13687e-13)">
            <path d="M745,916L745,938L723,928L745,916Z" style="fill:rgb(9,32,41);"></path>
        </g>
        <g transform="matrix(1,0,0,1,4,-1.13687e-13)">
            <path d="M644,927L610,925L693,820L644,927Z" style="fill:rgb(139,94,86);"></path>
        </g>
        <g transform="matrix(1,0,0,1,4,-1.13687e-13)">
            <path d="M726,887L644,927L693,820L726,887Z" style="fill:rgb(148,111,99);"></path>
        </g>
        <g transform="matrix(1,0,0,1,4,-1.13687e-13)">
            <path d="M787,822L726,887L693,820L787,822Z" style="fill:rgb(176,151,153);"></path>
        </g>
        <g transform="matrix(1,0,0,1,4,-1.13687e-13)">
            <path d="M902,846L810,897L787,822L902,846Z" style="fill:rgb(193,153,154);"></path>
        </g>
        <g transform="matrix(1,0,0,1,4,-1.13687e-13)">
            <path d="M866,959L902,846L810,897L866,959Z" style="fill:rgb(168,118,111);"></path>
        </g>
        <g transform="matrix(1,0,0,1,4,-1.13687e-13)">
            <path d="M971,874L902,846L866,959L971,874Z" style="fill:rgb(167,120,118);"></path>
        </g>
        <g transform="matrix(1,0,0,1,4,-1.13687e-13)">
            <path d="M957,1005L866,959L971,874L957,1005Z" style="fill:rgb(110,87,102);"></path>
        </g>
        <g transform="matrix(1,0,0,1,4,-1.13687e-13)">
            <path d="M978,905L971,874L957,1005L978,905Z" style="fill:rgb(42,31,43);"></path>
        </g>
        <g transform="matrix(1,0,0,1,4,-1.13687e-13)">
            <path d="M988,887L971,874L978,905L988,887Z" style="fill:rgb(22,32,29);"></path>
        </g>
        <g transform="matrix(1,0,0,1,4,-1.13687e-13)">
            <path d="M1000,910L978,905L988,887L1000,910Z" style="fill:rgb(27,47,59);"></path>
        </g>
        <g transform="matrix(1,0,0,1,4,-1.13687e-13)">
            <path d="M1144,893L1066,910L988,887L1144,893Z" style="fill:rgb(72,66,26);"></path>
        </g>
        <g transform="matrix(1,0,0,1,4,-1.13687e-13)">
            <path d="M1000,910L988,887L1066,910L1000,910Z" style="fill:rgb(118,111,79);"></path>
        </g>
        <g transform="matrix(1,0,0,1,4,-1.13687e-13)">
            <path d="M1117,910L1142,913L1144,893L1117,910Z" style="fill:rgb(156,117,100);"></path>
        </g>
        <g transform="matrix(1,0,0,1,4,-1.13687e-13)">
            <path d="M1066,910L1144,893L1117,910L1066,910Z" style="fill:rgb(152,152,138);"></path>
        </g>
        <g transform="matrix(1,0,0,1,4,-1.13687e-13)">
            <path d="M1142,913L1117,910L1147,999L1142,913Z" style="fill:rgb(211,142,123);"></path>
        </g>
        <g transform="matrix(1,0,0,1,4,-1.13687e-13)">
            <path d="M1155,908L1144,893L1142,913L1155,908Z" style="fill:rgb(105,112,87);"></path>
        </g>
        <g transform="matrix(1,0,0,1,4,-1.13687e-13)">
            <path d="M1156,882L1144,893L1155,908L1156,882Z" style="fill:rgb(76,85,87);"></path>
        </g>
        <g transform="matrix(1,0,0,1,4,-1.13687e-13)">
            <path d="M1147,999L1155,908L1142,913L1147,999Z" style="fill:rgb(65,55,60);"></path>
        </g>
        <g transform="matrix(1,0,0,1,4,-1.13687e-13)">
            <path d="M1169,1023L1147,999L1155,908L1169,1023Z" style="fill:rgb(21,0,0);"></path>
        </g>
        <g transform="matrix(1,0,0,1,4,-1.13687e-13)">
            <path d="M748,885L787,822L726,887L748,885Z" style="fill:rgb(189,159,143);"></path>
        </g>
        <g transform="matrix(1,0,0,1,4,-1.13687e-13)">
            <path d="M810,897L787,822L748,885L810,897Z" style="fill:rgb(182,151,131);"></path>
        </g>
        <g transform="matrix(1,0,0,1,4,-1.13687e-13)">
            <path d="M1601,992L1584,1064L1478,985L1601,992Z" style="fill:rgb(217,219,213);"></path>
        </g>
        <g transform="matrix(1,0,0,1,4,-1.13687e-13)">
            <path d="M1601,953L1478,985L1601,992L1601,953Z" style="fill:rgb(215,215,204);"></path>
        </g>
        <g transform="matrix(1,0,0,1,4,-1.13687e-13)">
            <path d="M1478,902L1478,985L1601,953L1478,902Z" style="fill:rgb(213,208,194);"></path>
        </g>
        <g transform="matrix(1,0,0,1,4,-1.13687e-13)">
            <path d="M1501,1104.34L1478,985L1471,1104.34L1501,1104.34Z" style="fill:rgb(222,219,211);"></path>
        </g>
        <g transform="matrix(1,0,0,1,4,-1.13687e-13)">
            <path d="M1584,1064L1501,1104.34L1478,985L1584,1064Z" style="fill:rgb(210,211,213);"></path>
        </g>
        <g transform="matrix(1,0,0,1,4,-1.13687e-13)">
            <path d="M1187,977L1263,985L1182,1060L1187,977Z" style="fill:rgb(210,173,157);"></path>
        </g>
        <!-- NOSE -->
        <g transform="matrix(1,0,0,1,4,-1.13687e-13)">
            <path d="M1169,1332L1207,1283L1199,1329L1169,1332Z" style="fill:rgb(150,65,49);"></path>
        </g>
    </g>
</svg>
