<svg width="100%" height="100%" viewBox="0 0 179 148" version="1.1" xmlns="http://www.w3.org/2000/svg" xmlns:xlink="http://www.w3.org/1999/xlink" xml:space="preserve" xmlns:serif="http://www.serif.com/" style="fill-rule:evenodd;clip-rule:evenodd;stroke-linejoin:round;stroke-miterlimit:2;">
    <g transform="matrix(0.561474,0,0,0.561474,-40.5106,-26.5948)">
        <g transform="matrix(1,0,0,1,0,-466.175)">
            <path d="M191.546,556.025C187.81,556.534 184.065,557.285 180.328,558.286C132.507,571.099 104.085,620.328 116.899,668.149C127.792,708.805 165.001,735.446 205.292,734.638C216.788,734.408 226.308,743.554 226.539,755.05C226.769,766.546 217.623,776.066 206.127,776.297C147.117,777.479 92.607,738.478 76.652,678.933C57.886,608.899 99.51,536.804 169.544,518.039C181.772,514.762 194.063,513.331 206.117,513.567C206.602,513.576 207.083,513.602 207.558,513.644C216.589,513.789 224.809,519.868 227.261,529.02L286.527,750.206C289.491,761.265 282.918,772.649 271.859,775.612C260.801,778.575 249.417,772.002 246.454,760.944L191.546,556.025Z" style="fill: currentColor" class="logo-c" />
        </g>
        <g transform="matrix(0.668814,2.49605,-0.878547,0.235406,318.419,-927.962)">
            <path d="M465.224,323.181C465.224,310.594 461.627,300.374 457.196,300.374L368.582,300.374C364.151,300.374 360.554,310.594 360.554,323.181C360.554,335.769 364.151,345.988 368.582,345.988L457.196,345.988C461.627,345.988 465.224,335.769 465.224,323.181Z" style="fill: currentColor" class="logo-w-long" />
        </g>
        <g transform="matrix(0.276648,1.03246,-0.878547,0.235406,530.721,-400.261)">
            <path d="M465.224,323.181C465.224,310.594 456.528,300.374 445.817,300.374L379.961,300.374C369.25,300.374 360.554,310.594 360.554,323.181C360.554,335.769 369.25,345.988 379.961,345.988L445.817,345.988C456.528,345.988 465.224,335.769 465.224,323.181Z" style="fill: currentColor" class="logo-w-short" />
        </g>
    </g>
</svg>
