<?xml version="1.0" encoding="UTF-8" standalone="no"?>
<!DOCTYPE svg PUBLIC "-//W3C//DTD SVG 1.1//EN" "http://www.w3.org/Graphics/SVG/1.1/DTD/svg11.dtd">
<svg width="100%" height="100%" viewBox="0 0 27 21" version="1.1" xmlns="http://www.w3.org/2000/svg" xmlns:xlink="http://www.w3.org/1999/xlink" xml:space="preserve" xmlns:serif="http://www.serif.com/" style="fill-rule:evenodd;clip-rule:evenodd;stroke-linejoin:round;stroke-miterlimit:2;">
    <g transform="matrix(1,0,0,1,-6.04028,-8.48528)">
        <g transform="matrix(6.12441e-17,1.00019,-0.866515,5.30587e-17,163.439,-133.387)">
            <path d="M151.942,151.144C149.562,151.144 147.59,152.767 146.128,155.408C144.152,158.977 143.105,164.462 143.111,169.613C143.112,170.092 143.368,170.52 143.755,170.691C150.21,173.525 153.993,173.546 160.448,170.689C160.828,170.521 161.082,170.105 161.09,169.635C161.184,164.307 159.996,158.834 157.888,155.303C156.344,152.716 154.305,151.144 151.942,151.144ZM145.119,168.813C150.422,171.036 153.787,171.051 159.095,168.81C159.063,164.241 158.045,159.634 156.242,156.612C155.11,154.715 153.674,153.452 151.942,153.452C150.224,153.452 148.869,154.744 147.813,156.651C146.114,159.72 145.211,164.356 145.119,168.813Z" style="fill:currentColor;"/>
        </g>
        <path d="M8.094,13.777L6.105,13.015L11.053,8.485L11.708,15.161L9.981,14.5C9.354,17.332 9.312,20.165 9.917,22.997L11.612,22.32L11.053,29.005L6.04,24.547L8.035,23.75C7.27,20.425 7.315,17.101 8.094,13.777Z" style="fill:currentColor;"/>
    </g>
</svg>
